<?xml version="1.0" encoding="UTF-8" standalone="no"?>
<!DOCTYPE svg PUBLIC "-//W3C//DTD SVG 1.1//EN"
 "http://www.w3.org/Graphics/SVG/1.1/DTD/svg11.dtd">
<!-- Generated by graphviz version 2.36.0 (20140111.2315)
 -->
<!-- Title: IControl Pages: 1 -->
<!--zoomable 1446 -->
<svg id="main" version="1.1" xmlns="http://www.w3.org/2000/svg" xmlns:xlink="http://www.w3.org/1999/xlink" xml:space="preserve" onload="init(evt)">
<style type="text/css"><![CDATA[
.edge:hover path { stroke: red; }
.edge:hover polygon { stroke: red; fill: red; }
]]></style>
<script type="text/javascript"><![CDATA[
var edges = document.getElementsByTagName('g');
if (edges && edges.length) {
  for (var i=0;i<edges.length;i++) {
    if (edges[i].id.substr(0,4)=='edge') {
      edges[i].setAttribute('class','edge');
    }
  }
}
]]></script>
        <defs>
                <circle id="rim" cx="0" cy="0" r="7"/>
                <circle id="rim2" cx="0" cy="0" r="3.5"/>
                <g id="zoomPlus">
                        <use xlink:href="#rim" fill="#404040">
                                <set attributeName="fill" to="#808080" begin="zoomplus.mouseover" end="zoomplus.mouseout"/>
                        </use>
                        <path d="M-4,0h8M0,-4v8" fill="none" stroke="white" stroke-width="1.5" pointer-events="none"/>
                </g>
                <g id="zoomMin">
                        <use xlink:href="#rim" fill="#404040">
                                <set attributeName="fill" to="#808080" begin="zoomminus.mouseover" end="zoomminus.mouseout"/>
                        </use>
                        <path d="M-4,0h8" fill="none" stroke="white" stroke-width="1.5" pointer-events="none"/>
                </g>
                <g id="dirArrow">
                        <path fill="none" stroke="white" stroke-width="1.5" d="M0,-3.0v7 M-2.5,-0.5L0,-3.0L2.5,-0.5"/>
                </g>
               <g id="resetDef">
                       <use xlink:href="#rim2" fill="#404040">
                               <set attributeName="fill" to="#808080" begin="reset.mouseover" end="reset.mouseout"/>
                       </use>
               </g>
        </defs>

<script type="text/javascript">
var viewWidth = 386;
var viewHeight = 1446;
var sectionId = 'dynsection-0';
</script>
<script xlink:href="svgpan.js"/>
<svg id="graph" class="graph">
<g id="viewport">
<title>IControl</title>
<polygon fill="white" stroke="none" points="-4,4 -4,-1442 382,-1442 382,4 -4,4"/>
<!-- Node1 -->
<g id="node1" class="node"><title>Node1</title>
<polygon fill="#bfbfbf" stroke="black" points="0.5,-715.5 0.5,-734.5 51.5,-734.5 51.5,-715.5 0.5,-715.5"/>
<text text-anchor="middle" x="26" y="-722.5" font-family="Helvetica,sans-Serif" font-size="10.00">IControl</text>
</g>
<!-- Node2 -->
<g id="node2" class="node"><title>Node2</title>
<g id="a_node2"><a xlink:href="class_g_f_x_label_control.html" target="_top" xlink:title="Control to display the graphics backend. ">
<polygon fill="white" stroke="black" points="112,-1418.5 112,-1437.5 204,-1437.5 204,-1418.5 112,-1418.5"/>
<text text-anchor="middle" x="158" y="-1425.5" font-family="Helvetica,sans-Serif" font-size="10.00">GFXLabelControl</text>
</a>
</g>
</g>
<!-- Node1&#45;&gt;Node2 -->
<g id="edge1" class="edge"><title>Node1&#45;&gt;Node2</title>
<path fill="none" stroke="midnightblue" d="M27.4441,-744.936C30.0046,-852.086 44.3272,-1356.68 88,-1409 94.1306,-1416.34 102.816,-1420.99 111.964,-1423.9"/>
<polygon fill="midnightblue" stroke="midnightblue" points="30.9411,-744.764 27.2102,-734.848 23.943,-744.926 30.9411,-744.764"/>
</g>
<!-- Node3 -->
<g id="node3" class="node"><title>Node3</title>
<g id="a_node3"><a xlink:href="class_i_bitmap_control.html" target="_top" xlink:title="A basic control to draw a bitmap, or one frame of a stacked bitmap depending on the current value...">
<polygon fill="white" stroke="black" points="117,-1380.5 117,-1399.5 199,-1399.5 199,-1380.5 117,-1380.5"/>
<text text-anchor="middle" x="158" y="-1387.5" font-family="Helvetica,sans-Serif" font-size="10.00">IBitmapControl</text>
</a>
</g>
</g>
<!-- Node1&#45;&gt;Node3 -->
<g id="edge2" class="edge"><title>Node1&#45;&gt;Node3</title>
<path fill="none" stroke="midnightblue" d="M27.5501,-744.79C30.5918,-848.013 46.7344,-1321.82 88,-1371 95.1879,-1379.57 105.85,-1384.46 116.655,-1387.2"/>
<polygon fill="midnightblue" stroke="midnightblue" points="31.0485,-744.681 27.2627,-734.785 24.0514,-744.882 31.0485,-744.681"/>
</g>
<!-- Node5 -->
<g id="node5" class="node"><title>Node5</title>
<g id="a_node5"><a xlink:href="class_i_button_control_base.html" target="_top" xlink:title="A base class for buttons/momentary switches &#45; cannot be linked to parameters. ">
<polygon fill="white" stroke="black" points="107,-1342.5 107,-1361.5 209,-1361.5 209,-1342.5 107,-1342.5"/>
<text text-anchor="middle" x="158" y="-1349.5" font-family="Helvetica,sans-Serif" font-size="10.00">IButtonControlBase</text>
</a>
</g>
</g>
<!-- Node1&#45;&gt;Node5 -->
<g id="edge4" class="edge"><title>Node1&#45;&gt;Node5</title>
<path fill="none" stroke="midnightblue" d="M27.6755,-744.852C31.2377,-844.479 49.1658,-1286.99 88,-1333 92.9689,-1338.89 99.5782,-1343.04 106.742,-1345.95"/>
<polygon fill="midnightblue" stroke="midnightblue" points="31.1671,-744.549 27.3195,-734.677 24.1714,-744.793 31.1671,-744.549"/>
</g>
<!-- Node8 -->
<g id="node8" class="node"><title>Node8</title>
<g id="a_node8"><a xlink:href="class_i_color_picker_control.html" target="_top" xlink:title="A control for choosing a color. ">
<polygon fill="white" stroke="black" points="107,-1304.5 107,-1323.5 209,-1323.5 209,-1304.5 107,-1304.5"/>
<text text-anchor="middle" x="158" y="-1311.5" font-family="Helvetica,sans-Serif" font-size="10.00">IColorPickerControl</text>
</a>
</g>
</g>
<!-- Node1&#45;&gt;Node8 -->
<g id="edge7" class="edge"><title>Node1&#45;&gt;Node8</title>
<path fill="none" stroke="midnightblue" d="M27.8128,-744.793C31.9129,-840.465 51.5769,-1252.14 88,-1295 92.9883,-1300.87 99.6076,-1305.01 106.775,-1307.92"/>
<polygon fill="midnightblue" stroke="midnightblue" points="31.298,-744.365 27.3809,-734.521 24.3042,-744.659 31.298,-744.365"/>
</g>
<!-- Node9 -->
<g id="node9" class="node"><title>Node9</title>
<g id="a_node9"><a xlink:href="class_i_corner_resizer_control.html" target="_top" xlink:title="A control for resizing the plug&#45;in window by clicking and dragging in the bottom right&#45;hand corner Th...">
<polygon fill="white" stroke="black" points="101,-1266.5 101,-1285.5 215,-1285.5 215,-1266.5 101,-1266.5"/>
<text text-anchor="middle" x="158" y="-1273.5" font-family="Helvetica,sans-Serif" font-size="10.00">ICornerResizerControl</text>
</a>
</g>
</g>
<!-- Node1&#45;&gt;Node9 -->
<g id="edge8" class="edge"><title>Node1&#45;&gt;Node9</title>
<path fill="none" stroke="midnightblue" d="M27.978,-744.911C32.664,-836.823 54.0055,-1217.3 88,-1257 91.5558,-1261.15 95.9277,-1264.44 100.73,-1267.03"/>
<polygon fill="midnightblue" stroke="midnightblue" points="31.465,-744.563 27.4684,-734.751 24.4738,-744.914 31.465,-744.563"/>
</g>
<!-- Node10 -->
<g id="node10" class="node"><title>Node10</title>
<g id="a_node10"><a xlink:href="class_i_dir_browse_control_base.html" target="_top" xlink:title="An abstract IControl base class that you can inherit from in order to make a control that pops up a m...">
<polygon fill="white" stroke="black" points="98.5,-1228.5 98.5,-1247.5 217.5,-1247.5 217.5,-1228.5 98.5,-1228.5"/>
<text text-anchor="middle" x="158" y="-1235.5" font-family="Helvetica,sans-Serif" font-size="10.00">IDirBrowseControlBase</text>
</a>
</g>
</g>
<!-- Node1&#45;&gt;Node10 -->
<g id="edge9" class="edge"><title>Node1&#45;&gt;Node10</title>
<path fill="none" stroke="midnightblue" d="M26.6249,-744.923C25.4714,-828.064 25.2798,-1146.39 88,-1219 91.3302,-1222.86 95.3635,-1225.96 99.7893,-1228.46"/>
<polygon fill="midnightblue" stroke="midnightblue" points="30.1263,-744.857 26.7876,-734.802 23.1272,-744.745 30.1263,-744.857"/>
</g>
<!-- Node12 -->
<g id="node12" class="node"><title>Node12</title>
<g id="a_node12"><a xlink:href="class_i_f_p_s_display_control.html" target="_top" xlink:title="Performance display meter, based on code from NanoVG This is a special control that lives outside the...">
<polygon fill="white" stroke="black" points="106,-1190.5 106,-1209.5 210,-1209.5 210,-1190.5 106,-1190.5"/>
<text text-anchor="middle" x="158" y="-1197.5" font-family="Helvetica,sans-Serif" font-size="10.00">IFPSDisplayControl</text>
</a>
</g>
</g>
<!-- Node1&#45;&gt;Node12 -->
<g id="edge11" class="edge"><title>Node1&#45;&gt;Node12</title>
<path fill="none" stroke="midnightblue" d="M26.8538,-744.887C26.6818,-823.908 30.0596,-1114.61 88,-1181 92.8202,-1186.52 99.0836,-1190.51 105.869,-1193.37"/>
<polygon fill="midnightblue" stroke="midnightblue" points="30.354,-744.832 26.8988,-734.816 23.354,-744.8 30.354,-744.832"/>
</g>
<!-- Node13 -->
<g id="node13" class="node"><title>Node13</title>
<g id="a_node13"><a xlink:href="class_i_graphics_live_edit.html" target="_top" xlink:title="A control to enable live modification of control layout in an IGraphics context in debug builds This ...">
<polygon fill="white" stroke="black" points="111,-1152.5 111,-1171.5 205,-1171.5 205,-1152.5 111,-1152.5"/>
<text text-anchor="middle" x="158" y="-1159.5" font-family="Helvetica,sans-Serif" font-size="10.00">IGraphicsLiveEdit</text>
</a>
</g>
</g>
<!-- Node1&#45;&gt;Node13 -->
<g id="edge12" class="edge"><title>Node1&#45;&gt;Node13</title>
<path fill="none" stroke="midnightblue" d="M27.1252,-745.11C28.004,-820.191 34.8867,-1082.87 88,-1143 94.0046,-1149.8 102.195,-1154.26 110.837,-1157.18"/>
<polygon fill="midnightblue" stroke="midnightblue" points="30.6217,-744.698 27.0296,-734.73 23.622,-744.762 30.6217,-744.698"/>
</g>
<!-- Node14 -->
<g id="node14" class="node"><title>Node14</title>
<g id="a_node14"><a xlink:href="class_i_knob_control_base.html" target="_top" xlink:title="A base class for knob/dial controls, to handle mouse action and Sender. ">
<polygon fill="white" stroke="red" points="110,-1114.5 110,-1133.5 206,-1133.5 206,-1114.5 110,-1114.5"/>
<text text-anchor="middle" x="158" y="-1121.5" font-family="Helvetica,sans-Serif" font-size="10.00">IKnobControlBase</text>
</a>
</g>
</g>
<!-- Node1&#45;&gt;Node14 -->
<g id="edge13" class="edge"><title>Node1&#45;&gt;Node14</title>
<path fill="none" stroke="midnightblue" d="M27.4365,-744.626C29.3923,-814.648 39.5318,-1050.91 88,-1105 93.8042,-1111.48 101.593,-1115.83 109.848,-1118.74"/>
<polygon fill="midnightblue" stroke="midnightblue" points="30.9332,-744.445 27.1808,-734.537 23.9354,-744.623 30.9332,-744.445"/>
</g>
<!-- Node21 -->
<g id="node21" class="node"><title>Node21</title>
<g id="a_node21"><a xlink:href="class_i_lambda_control.html" target="_top" xlink:title="A control that can be specialised with a lambda function, for quick experiments without making a cust...">
<polygon fill="white" stroke="black" points="115,-1076.5 115,-1095.5 201,-1095.5 201,-1076.5 115,-1076.5"/>
<text text-anchor="middle" x="158" y="-1083.5" font-family="Helvetica,sans-Serif" font-size="10.00">ILambdaControl</text>
</a>
</g>
</g>
<!-- Node1&#45;&gt;Node21 -->
<g id="edge20" class="edge"><title>Node1&#45;&gt;Node21</title>
<path fill="none" stroke="midnightblue" d="M27.8275,-744.742C30.9711,-810.262 44.2983,-1019.07 88,-1067 95.0322,-1074.71 104.878,-1079.41 114.935,-1082.24"/>
<polygon fill="midnightblue" stroke="midnightblue" points="31.3151,-744.387 27.367,-734.556 24.3223,-744.703 31.3151,-744.387"/>
</g>
<!-- Node22 -->
<g id="node22" class="node"><title>Node22</title>
<g id="a_node22"><a xlink:href="class_i_panel_control.html" target="_top" xlink:title="A basic control to fill a rectangle with a color or gradient. ">
<polygon fill="white" stroke="black" points="120,-1038.5 120,-1057.5 196,-1057.5 196,-1038.5 120,-1038.5"/>
<text text-anchor="middle" x="158" y="-1045.5" font-family="Helvetica,sans-Serif" font-size="10.00">IPanelControl</text>
</a>
</g>
</g>
<!-- Node1&#45;&gt;Node22 -->
<g id="edge21" class="edge"><title>Node1&#45;&gt;Node22</title>
<path fill="none" stroke="midnightblue" d="M28.3196,-744.882C32.7474,-805.628 49.0454,-987.19 88,-1029 96.2158,-1037.82 108.112,-1042.68 119.72,-1045.32"/>
<polygon fill="midnightblue" stroke="midnightblue" points="31.7976,-744.444 27.6085,-734.712 24.8146,-744.932 31.7976,-744.444"/>
</g>
<!-- Node23 -->
<g id="node23" class="node"><title>Node23</title>
<g id="a_node23"><a xlink:href="class_i_popup_menu_control.html" target="_top" xlink:title="A base control for a pop&#45;up menu/drop&#45;down list that stays within the bounds of the IGraphics context...">
<polygon fill="white" stroke="black" points="106.5,-1000.5 106.5,-1019.5 209.5,-1019.5 209.5,-1000.5 106.5,-1000.5"/>
<text text-anchor="middle" x="158" y="-1007.5" font-family="Helvetica,sans-Serif" font-size="10.00">IPopupMenuControl</text>
</a>
</g>
</g>
<!-- Node1&#45;&gt;Node23 -->
<g id="edge22" class="edge"><title>Node1&#45;&gt;Node23</title>
<path fill="none" stroke="midnightblue" d="M28.9402,-744.89C34.7456,-800.391 53.7354,-955.219 88,-991 93.0703,-996.295 99.4684,-1000.16 106.313,-1002.97"/>
<polygon fill="midnightblue" stroke="midnightblue" points="32.3912,-744.229 27.9007,-734.633 25.4269,-744.935 32.3912,-744.229"/>
</g>
<!-- Node24 -->
<g id="node24" class="node"><title>Node24</title>
<g id="a_node24"><a xlink:href="class_i_slider_control_base.html" target="_top" xlink:title="A base class for slider/fader controls, to handle mouse action and Sender. ">
<polygon fill="white" stroke="red" points="109,-962.5 109,-981.5 207,-981.5 207,-962.5 109,-962.5"/>
<text text-anchor="middle" x="158" y="-969.5" font-family="Helvetica,sans-Serif" font-size="10.00">ISliderControlBase</text>
</a>
</g>
</g>
<!-- Node1&#45;&gt;Node24 -->
<g id="edge23" class="edge"><title>Node1&#45;&gt;Node24</title>
<path fill="none" stroke="midnightblue" d="M26.1835,-745.137C25.5476,-789.247 30.4944,-895.074 88,-953 93.7775,-958.82 101.162,-962.902 108.941,-965.755"/>
<polygon fill="midnightblue" stroke="midnightblue" points="29.6893,-744.958 26.4542,-734.869 22.6918,-744.773 29.6893,-744.958"/>
</g>
<!-- Node25 -->
<g id="node25" class="node"><title>Node25</title>
<g id="a_node25"><a xlink:href="class_i_s_v_g_control.html" target="_top" xlink:title="A basic control to draw an SVG image to the screen. ">
<polygon fill="white" stroke="black" points="122,-924.5 122,-943.5 194,-943.5 194,-924.5 122,-924.5"/>
<text text-anchor="middle" x="158" y="-931.5" font-family="Helvetica,sans-Serif" font-size="10.00">ISVGControl</text>
</a>
</g>
</g>
<!-- Node1&#45;&gt;Node25 -->
<g id="edge24" class="edge"><title>Node1&#45;&gt;Node25</title>
<path fill="none" stroke="midnightblue" d="M27.4665,-744.887C29.4778,-783.41 39.5044,-868.498 88,-915 97.0579,-923.686 109.709,-928.475 121.708,-931.091"/>
<polygon fill="midnightblue" stroke="midnightblue" points="30.9495,-744.378 27.0659,-734.521 23.9547,-744.649 30.9495,-744.378"/>
</g>
<!-- Node26 -->
<g id="node26" class="node"><title>Node26</title>
<g id="a_node26"><a xlink:href="class_i_switch_control_base.html" target="_top" xlink:title="A base class for switch controls. ">
<polygon fill="white" stroke="red" points="106,-886.5 106,-905.5 210,-905.5 210,-886.5 106,-886.5"/>
<text text-anchor="middle" x="158" y="-893.5" font-family="Helvetica,sans-Serif" font-size="10.00">ISwitchControlBase</text>
</a>
</g>
</g>
<!-- Node1&#45;&gt;Node26 -->
<g id="edge25" class="edge"><title>Node1&#45;&gt;Node26</title>
<path fill="none" stroke="midnightblue" d="M29.3349,-744.945C34.2153,-777.452 48.5379,-841.761 88,-877 93.1899,-881.635 99.411,-885.151 105.964,-887.816"/>
<polygon fill="midnightblue" stroke="midnightblue" points="32.7817,-744.315 27.9767,-734.872 25.8445,-745.251 32.7817,-744.315"/>
</g>
<!-- Node27 -->
<g id="node27" class="node"><title>Node27</title>
<g id="a_node27"><a xlink:href="class_i_text_control.html" target="_top" xlink:title="A basic control to display some text. ">
<polygon fill="white" stroke="red" points="122.5,-848.5 122.5,-867.5 193.5,-867.5 193.5,-848.5 122.5,-848.5"/>
<text text-anchor="middle" x="158" y="-855.5" font-family="Helvetica,sans-Serif" font-size="10.00">ITextControl</text>
</a>
</g>
</g>
<!-- Node1&#45;&gt;Node27 -->
<g id="edge26" class="edge"><title>Node1&#45;&gt;Node27</title>
<path fill="none" stroke="midnightblue" d="M32.1219,-744.27C39.9015,-769.768 57.1564,-814.358 88,-839 97.7074,-846.756 110.359,-851.351 122.174,-854.072"/>
<polygon fill="midnightblue" stroke="midnightblue" points="35.477,-743.273 29.3559,-734.625 28.7482,-745.203 35.477,-743.273"/>
</g>
<!-- Node28 -->
<g id="node28" class="node"><title>Node28</title>
<g id="a_node28"><a xlink:href="class_i_text_entry_control.html" target="_top" xlink:title="A Text entry widget drawn by IGraphics. ">
<polygon fill="white" stroke="black" points="111,-810.5 111,-829.5 205,-829.5 205,-810.5 111,-810.5"/>
<text text-anchor="middle" x="158" y="-817.5" font-family="Helvetica,sans-Serif" font-size="10.00">ITextEntryControl</text>
</a>
</g>
</g>
<!-- Node1&#45;&gt;Node28 -->
<g id="edge27" class="edge"><title>Node1&#45;&gt;Node28</title>
<path fill="none" stroke="midnightblue" d="M37.0292,-743.223C47.5198,-760.605 65.5747,-786.257 88,-801 94.8523,-805.505 102.758,-808.95 110.718,-811.582"/>
<polygon fill="midnightblue" stroke="midnightblue" points="40.0403,-741.439 31.9996,-734.54 33.9829,-744.947 40.0403,-741.439"/>
</g>
<!-- Node29 -->
<g id="node29" class="node"><title>Node29</title>
<g id="a_node29"><a xlink:href="class_i_v_display_control.html" target="_top" xlink:title="IVDisplayControl">
<polygon fill="white" stroke="black" points="112.5,-772.5 112.5,-791.5 203.5,-791.5 203.5,-772.5 112.5,-772.5"/>
<text text-anchor="middle" x="158" y="-779.5" font-family="Helvetica,sans-Serif" font-size="10.00">IVDisplayControl</text>
</a>
</g>
</g>
<!-- Node1&#45;&gt;Node29 -->
<g id="edge28" class="edge"><title>Node1&#45;&gt;Node29</title>
<path fill="none" stroke="midnightblue" d="M48.3182,-740.405C59.6651,-748.046 74.1127,-756.916 88,-763 96.4218,-766.69 105.74,-769.834 114.733,-772.439"/>
<polygon fill="midnightblue" stroke="midnightblue" points="50.168,-737.429 39.9528,-734.618 46.1855,-743.186 50.168,-737.429"/>
</g>
<!-- Node30 -->
<g id="node30" class="node"><title>Node30</title>
<g id="a_node30"><a xlink:href="class_i_v_keyboard_control.html" target="_top" xlink:title="Vectorial keyboard control. ">
<polygon fill="white" stroke="black" points="108.5,-734.5 108.5,-753.5 207.5,-753.5 207.5,-734.5 108.5,-734.5"/>
<text text-anchor="middle" x="158" y="-741.5" font-family="Helvetica,sans-Serif" font-size="10.00">IVKeyboardControl</text>
</a>
</g>
</g>
<!-- Node1&#45;&gt;Node30 -->
<g id="edge29" class="edge"><title>Node1&#45;&gt;Node30</title>
<path fill="none" stroke="midnightblue" d="M61.6823,-730.069C76.0016,-732.162 92.8505,-734.624 108.368,-736.892"/>
<polygon fill="midnightblue" stroke="midnightblue" points="62.1591,-726.602 51.758,-728.618 61.1467,-733.528 62.1591,-726.602"/>
</g>
<!-- Node31 -->
<g id="node31" class="node"><title>Node31</title>
<g id="a_node31"><a xlink:href="class_i_v_plot_control.html" target="_top" xlink:title="IVPlotControl">
<polygon fill="white" stroke="black" points="120.5,-696.5 120.5,-715.5 195.5,-715.5 195.5,-696.5 120.5,-696.5"/>
<text text-anchor="middle" x="158" y="-703.5" font-family="Helvetica,sans-Serif" font-size="10.00">IVPlotControl</text>
</a>
</g>
</g>
<!-- Node1&#45;&gt;Node31 -->
<g id="edge30" class="edge"><title>Node1&#45;&gt;Node31</title>
<path fill="none" stroke="midnightblue" d="M61.8708,-719.903C79.9273,-717.264 101.967,-714.043 120.284,-711.366"/>
<polygon fill="midnightblue" stroke="midnightblue" points="61.1467,-716.472 51.758,-721.382 62.1591,-723.398 61.1467,-716.472"/>
</g>
<!-- Node32 -->
<g id="node32" class="node"><title>Node32</title>
<g id="a_node32"><a xlink:href="class_i_v_scope_control.html" target="_top" xlink:title="Vectorial multichannel capable oscilloscope control. ">
<polygon fill="white" stroke="black" points="88,-647 88,-677 228,-677 228,-647 88,-647"/>
<text text-anchor="start" x="96" y="-665" font-family="Helvetica,sans-Serif" font-size="10.00">IVScopeControl&lt; MAXNC,</text>
<text text-anchor="middle" x="158" y="-654" font-family="Helvetica,sans-Serif" font-size="10.00"> MAXBUF, QUEUE_SIZE &gt;</text>
</a>
</g>
</g>
<!-- Node1&#45;&gt;Node32 -->
<g id="edge31" class="edge"><title>Node1&#45;&gt;Node32</title>
<path fill="none" stroke="midnightblue" d="M48.9716,-709.75C60.3034,-702.294 74.5405,-693.541 88,-687 95.3342,-683.436 103.314,-680.091 111.158,-677.079"/>
<polygon fill="midnightblue" stroke="midnightblue" points="46.9291,-706.906 40.5769,-715.385 50.8305,-712.718 46.9291,-706.906"/>
</g>
<!-- Node33 -->
<g id="node33" class="node"><title>Node33</title>
<g id="a_node33"><a xlink:href="class_i_v_track_control_base.html" target="_top" xlink:title="A base class for mult&#45;strip/track controls, such as multi&#45;sliders, meters. ">
<polygon fill="white" stroke="red" points="105.5,-608.5 105.5,-627.5 210.5,-627.5 210.5,-608.5 105.5,-608.5"/>
<text text-anchor="middle" x="158" y="-615.5" font-family="Helvetica,sans-Serif" font-size="10.00">IVTrackControlBase</text>
</a>
</g>
</g>
<!-- Node1&#45;&gt;Node33 -->
<g id="edge32" class="edge"><title>Node1&#45;&gt;Node33</title>
<path fill="none" stroke="midnightblue" d="M35.5272,-706.003C45.3878,-686.164 63.4653,-655.542 88,-638 94.0874,-633.648 101.112,-630.237 108.299,-627.565"/>
<polygon fill="midnightblue" stroke="midnightblue" points="32.2556,-704.734 31.1291,-715.269 38.5793,-707.736 32.2556,-704.734"/>
</g>
<!-- Node34 -->
<g id="node34" class="node"><title>Node34</title>
<g id="a_node34"><a xlink:href="class_i_v_x_y_pad_control.html" target="_top" xlink:title="IVXYPadControl">
<polygon fill="white" stroke="black" points="113.5,-570.5 113.5,-589.5 202.5,-589.5 202.5,-570.5 113.5,-570.5"/>
<text text-anchor="middle" x="158" y="-577.5" font-family="Helvetica,sans-Serif" font-size="10.00">IVXYPadControl</text>
</a>
</g>
</g>
<!-- Node1&#45;&gt;Node34 -->
<g id="edge33" class="edge"><title>Node1&#45;&gt;Node34</title>
<path fill="none" stroke="midnightblue" d="M31.1281,-705.353C38.0104,-677.515 54.5124,-626.882 88,-599 95.2569,-592.958 104.286,-588.829 113.396,-586.009"/>
<polygon fill="midnightblue" stroke="midnightblue" points="27.6382,-704.913 28.8119,-715.443 34.4607,-706.479 27.6382,-704.913"/>
</g>
<!-- Node35 -->
<g id="node35" class="node"><title>Node35</title>
<g id="a_node35"><a xlink:href="class_test_animation_control.html" target="_top" xlink:title="Control to test animation. ">
<polygon fill="white" stroke="black" points="102.5,-532.5 102.5,-551.5 213.5,-551.5 213.5,-532.5 102.5,-532.5"/>
<text text-anchor="middle" x="158" y="-539.5" font-family="Helvetica,sans-Serif" font-size="10.00">TestAnimationControl</text>
</a>
</g>
</g>
<!-- Node1&#45;&gt;Node35 -->
<g id="edge34" class="edge"><title>Node1&#45;&gt;Node35</title>
<path fill="none" stroke="midnightblue" d="M28.6695,-704.97C32.6383,-670.446 45.7407,-599.719 88,-561 92.2142,-557.139 97.1417,-554.052 102.39,-551.586"/>
<polygon fill="midnightblue" stroke="midnightblue" points="25.1598,-704.893 27.6447,-715.192 32.1249,-705.591 25.1598,-704.893"/>
</g>
<!-- Node36 -->
<g id="node36" class="node"><title>Node36</title>
<g id="a_node36"><a xlink:href="class_test_bezier_control.html" target="_top" xlink:title="Control to test drawing bezier curves. ">
<polygon fill="white" stroke="black" points="110.5,-494.5 110.5,-513.5 205.5,-513.5 205.5,-494.5 110.5,-494.5"/>
<text text-anchor="middle" x="158" y="-501.5" font-family="Helvetica,sans-Serif" font-size="10.00">TestBezierControl</text>
</a>
</g>
</g>
<!-- Node1&#45;&gt;Node36 -->
<g id="edge35" class="edge"><title>Node1&#45;&gt;Node36</title>
<path fill="none" stroke="midnightblue" d="M27.0109,-705.24C28.1443,-665.011 36.5814,-573.171 88,-523 94.1362,-517.013 101.977,-512.873 110.158,-510.019"/>
<polygon fill="midnightblue" stroke="midnightblue" points="23.5098,-705.295 26.8549,-715.348 30.5089,-705.404 23.5098,-705.295"/>
</g>
<!-- Node37 -->
<g id="node37" class="node"><title>Node37</title>
<g id="a_node37"><a xlink:href="class_test_color_control.html" target="_top" xlink:title="Control to colors. ">
<polygon fill="white" stroke="black" points="112.5,-456.5 112.5,-475.5 203.5,-475.5 203.5,-456.5 112.5,-456.5"/>
<text text-anchor="middle" x="158" y="-463.5" font-family="Helvetica,sans-Serif" font-size="10.00">TestColorControl</text>
</a>
</g>
</g>
<!-- Node1&#45;&gt;Node37 -->
<g id="edge36" class="edge"><title>Node1&#45;&gt;Node37</title>
<path fill="none" stroke="midnightblue" d="M29.4853,-705.024C36.3137,-653.274 56.9413,-516.68 88,-485 94.6108,-478.257 103.378,-473.843 112.438,-470.97"/>
<polygon fill="midnightblue" stroke="midnightblue" points="25.9773,-704.863 28.1743,-715.228 32.9202,-705.755 25.9773,-704.863"/>
</g>
<!-- Node38 -->
<g id="node38" class="node"><title>Node38</title>
<g id="a_node38"><a xlink:href="class_test_cursor_control.html" target="_top" xlink:title="Control to test changing the platform cursor. ">
<polygon fill="white" stroke="black" points="109.5,-418.5 109.5,-437.5 206.5,-437.5 206.5,-418.5 109.5,-418.5"/>
<text text-anchor="middle" x="158" y="-425.5" font-family="Helvetica,sans-Serif" font-size="10.00">TestCursorControl</text>
</a>
</g>
</g>
<!-- Node1&#45;&gt;Node38 -->
<g id="edge37" class="edge"><title>Node1&#45;&gt;Node38</title>
<path fill="none" stroke="midnightblue" d="M28.7398,-704.969C34.1148,-647.644 52.2876,-484.646 88,-447 93.8149,-440.87 101.409,-436.656 109.427,-433.773"/>
<polygon fill="midnightblue" stroke="midnightblue" points="25.2262,-704.961 27.8096,-715.236 32.1977,-705.593 25.2262,-704.961"/>
</g>
<!-- Node39 -->
<g id="node39" class="node"><title>Node39</title>
<g id="a_node39"><a xlink:href="class_test_draw_context_control.html" target="_top" xlink:title="Control to test obtaining a drawing API (NanoVG, LICE, Cairo, AGG etc) context and using that API wit...">
<polygon fill="white" stroke="black" points="95.5,-380.5 95.5,-399.5 220.5,-399.5 220.5,-380.5 95.5,-380.5"/>
<text text-anchor="middle" x="158" y="-387.5" font-family="Helvetica,sans-Serif" font-size="10.00">TestDrawContextControl</text>
</a>
</g>
</g>
<!-- Node1&#45;&gt;Node39 -->
<g id="edge38" class="edge"><title>Node1&#45;&gt;Node39</title>
<path fill="none" stroke="midnightblue" d="M28.1522,-705.147C32.1649,-642.842 47.5526,-452.733 88,-409 91.5433,-405.169 95.7813,-402.083 100.39,-399.602"/>
<polygon fill="midnightblue" stroke="midnightblue" points="24.6526,-705.033 27.5318,-715.229 31.6394,-705.463 24.6526,-705.033"/>
</g>
<!-- Node40 -->
<g id="node40" class="node"><title>Node40</title>
<g id="a_node40"><a xlink:href="class_test_drop_shadow_control.html" target="_top" xlink:title="Control to test layer drop shadows. ">
<polygon fill="white" stroke="black" points="96,-342.5 96,-361.5 220,-361.5 220,-342.5 96,-342.5"/>
<text text-anchor="middle" x="158" y="-349.5" font-family="Helvetica,sans-Serif" font-size="10.00">TestDropShadowControl</text>
</a>
</g>
</g>
<!-- Node1&#45;&gt;Node40 -->
<g id="edge39" class="edge"><title>Node1&#45;&gt;Node40</title>
<path fill="none" stroke="midnightblue" d="M27.6892,-705.432C30.437,-638.62 42.7647,-420.904 88,-371 91.5048,-367.134 95.7168,-364.024 100.31,-361.528"/>
<polygon fill="midnightblue" stroke="midnightblue" points="24.1908,-705.323 27.3039,-715.45 31.1857,-705.592 24.1908,-705.323"/>
</g>
<!-- Node41 -->
<g id="node41" class="node"><title>Node41</title>
<g id="a_node41"><a xlink:href="class_test_font_control.html" target="_top" xlink:title="Control to test drawing fonts. ">
<polygon fill="white" stroke="black" points="114.5,-304.5 114.5,-323.5 201.5,-323.5 201.5,-304.5 114.5,-304.5"/>
<text text-anchor="middle" x="158" y="-311.5" font-family="Helvetica,sans-Serif" font-size="10.00">TestFontControl</text>
</a>
</g>
</g>
<!-- Node1&#45;&gt;Node41 -->
<g id="edge40" class="edge"><title>Node1&#45;&gt;Node41</title>
<path fill="none" stroke="midnightblue" d="M27.3438,-704.76C28.9825,-632.544 38.1729,-388.876 88,-333 94.8637,-325.303 104.53,-320.6 114.46,-317.758"/>
<polygon fill="midnightblue" stroke="midnightblue" points="23.8365,-705.096 27.1347,-715.164 30.8351,-705.237 23.8365,-705.096"/>
</g>
<!-- Node42 -->
<g id="node42" class="node"><title>Node42</title>
<g id="a_node42"><a xlink:href="class_test_g_l_control.html" target="_top" xlink:title="TestGLControl">
<polygon fill="white" stroke="black" points="118,-266.5 118,-285.5 198,-285.5 198,-266.5 118,-266.5"/>
<text text-anchor="middle" x="158" y="-273.5" font-family="Helvetica,sans-Serif" font-size="10.00">TestGLControl</text>
</a>
</g>
</g>
<!-- Node1&#45;&gt;Node42 -->
<g id="edge41" class="edge"><title>Node1&#45;&gt;Node42</title>
<path fill="none" stroke="midnightblue" d="M27.0315,-705.287C27.5566,-629.388 33.2861,-357.193 88,-295 95.6325,-286.324 106.826,-281.444 117.985,-278.748"/>
<polygon fill="midnightblue" stroke="midnightblue" points="23.5313,-705.353 26.9859,-715.369 30.5312,-705.385 23.5313,-705.353"/>
</g>
<!-- Node43 -->
<g id="node43" class="node"><title>Node43</title>
<g id="a_node43"><a xlink:href="class_test_image_control.html" target="_top" xlink:title="Control to test drawing bitmaps. ">
<polygon fill="white" stroke="black" points="110.5,-228.5 110.5,-247.5 205.5,-247.5 205.5,-228.5 110.5,-228.5"/>
<text text-anchor="middle" x="158" y="-235.5" font-family="Helvetica,sans-Serif" font-size="10.00">TestImageControl</text>
</a>
</g>
</g>
<!-- Node1&#45;&gt;Node43 -->
<g id="edge42" class="edge"><title>Node1&#45;&gt;Node43</title>
<path fill="none" stroke="midnightblue" d="M26.7777,-705.116C26.2897,-624.798 28.5481,-325.355 88,-257 93.8709,-250.25 101.897,-245.794 110.403,-242.875"/>
<polygon fill="midnightblue" stroke="midnightblue" points="23.2795,-705.352 26.8632,-715.322 30.2793,-705.293 23.2795,-705.352"/>
</g>
<!-- Node44 -->
<g id="node44" class="node"><title>Node44</title>
<g id="a_node44"><a xlink:href="class_test_keyboard_control.html" target="_top" xlink:title="Control to test keyboard input. ">
<polygon fill="white" stroke="black" points="103.5,-190.5 103.5,-209.5 212.5,-209.5 212.5,-190.5 103.5,-190.5"/>
<text text-anchor="middle" x="158" y="-197.5" font-family="Helvetica,sans-Serif" font-size="10.00">TestKeyboardControl</text>
</a>
</g>
</g>
<!-- Node1&#45;&gt;Node44 -->
<g id="edge43" class="edge"><title>Node1&#45;&gt;Node44</title>
<path fill="none" stroke="midnightblue" d="M26.5607,-705.143C25.1073,-620.853 23.7483,-293.596 88,-219 92.2166,-214.105 97.5671,-210.414 103.417,-207.641"/>
<polygon fill="midnightblue" stroke="midnightblue" points="23.0658,-705.442 26.7596,-715.372 30.0645,-705.306 23.0658,-705.442"/>
</g>
<!-- Node45 -->
<g id="node45" class="node"><title>Node45</title>
<g id="a_node45"><a xlink:href="class_test_m_p_s_control.html" target="_top" xlink:title="TestMPSControl">
<polygon fill="white" stroke="black" points="113.5,-152.5 113.5,-171.5 202.5,-171.5 202.5,-152.5 113.5,-152.5"/>
<text text-anchor="middle" x="158" y="-159.5" font-family="Helvetica,sans-Serif" font-size="10.00">TestMPSControl</text>
</a>
</g>
</g>
<!-- Node1&#45;&gt;Node45 -->
<g id="edge44" class="edge"><title>Node1&#45;&gt;Node45</title>
<path fill="none" stroke="midnightblue" d="M27.9178,-705.238C32.4036,-612.323 53.2252,-221.714 88,-181 94.4557,-173.442 103.615,-168.752 113.157,-165.876"/>
<polygon fill="midnightblue" stroke="midnightblue" points="24.41,-705.321 27.432,-715.476 31.4022,-705.653 24.41,-705.321"/>
</g>
<!-- Node46 -->
<g id="node46" class="node"><title>Node46</title>
<g id="a_node46"><a xlink:href="class_test_shadow_gradient_control.html" target="_top" xlink:title="Control to test drawing shadows with gradients. ">
<polygon fill="white" stroke="black" points="88,-114.5 88,-133.5 228,-133.5 228,-114.5 88,-114.5"/>
<text text-anchor="middle" x="158" y="-121.5" font-family="Helvetica,sans-Serif" font-size="10.00">TestShadowGradientControl</text>
</a>
</g>
</g>
<!-- Node1&#45;&gt;Node46 -->
<g id="edge45" class="edge"><title>Node1&#45;&gt;Node46</title>
<path fill="none" stroke="midnightblue" d="M27.7716,-705.088C31.7079,-607.967 50.8287,-186.84 88,-143 91.2141,-139.209 95.1084,-136.139 99.3919,-133.657"/>
<polygon fill="midnightblue" stroke="midnightblue" points="24.2666,-705.148 27.3667,-715.279 31.2611,-705.426 24.2666,-705.148"/>
</g>
<!-- Node47 -->
<g id="node47" class="node"><title>Node47</title>
<g id="a_node47"><a xlink:href="class_test_size_control.html" target="_top" xlink:title="Control to display the size of a region. ">
<polygon fill="white" stroke="black" points="114.5,-76.5 114.5,-95.5 201.5,-95.5 201.5,-76.5 114.5,-76.5"/>
<text text-anchor="middle" x="158" y="-83.5" font-family="Helvetica,sans-Serif" font-size="10.00">TestSizeControl</text>
</a>
</g>
</g>
<!-- Node1&#45;&gt;Node47 -->
<g id="edge46" class="edge"><title>Node1&#45;&gt;Node47</title>
<path fill="none" stroke="midnightblue" d="M27.6377,-705.065C31.0408,-604.086 48.4119,-151.993 88,-105 94.6443,-97.1129 104.233,-92.3429 114.159,-89.4977"/>
<polygon fill="midnightblue" stroke="midnightblue" points="24.1373,-705.022 27.306,-715.132 31.1335,-705.253 24.1373,-705.022"/>
</g>
<!-- Node48 -->
<g id="node48" class="node"><title>Node48</title>
<g id="a_node48"><a xlink:href="class_test_s_v_g_control.html" target="_top" xlink:title="Control to test drawing SVGs. ">
<polygon fill="white" stroke="black" points="113.5,-38.5 113.5,-57.5 202.5,-57.5 202.5,-38.5 113.5,-38.5"/>
<text text-anchor="middle" x="158" y="-45.5" font-family="Helvetica,sans-Serif" font-size="10.00">TestSVGControl</text>
</a>
</g>
</g>
<!-- Node1&#45;&gt;Node48 -->
<g id="edge47" class="edge"><title>Node1&#45;&gt;Node48</title>
<path fill="none" stroke="midnightblue" d="M27.5243,-704.844C30.4347,-599.708 46.0174,-117.121 88,-67 94.4625,-59.2847 103.743,-54.5496 113.412,-51.6812"/>
<polygon fill="midnightblue" stroke="midnightblue" points="24.0205,-704.943 27.2497,-715.033 31.0179,-705.131 24.0205,-704.943"/>
</g>
<!-- Node49 -->
<g id="node49" class="node"><title>Node49</title>
<g id="a_node49"><a xlink:href="class_test_text_control.html" target="_top" xlink:title="Control to test drawing text. ">
<polygon fill="white" stroke="black" points="114.5,-0.5 114.5,-19.5 201.5,-19.5 201.5,-0.5 114.5,-0.5"/>
<text text-anchor="middle" x="158" y="-7.5" font-family="Helvetica,sans-Serif" font-size="10.00">TestTextControl</text>
</a>
</g>
</g>
<!-- Node1&#45;&gt;Node49 -->
<g id="edge48" class="edge"><title>Node1&#45;&gt;Node49</title>
<path fill="none" stroke="midnightblue" d="M27.4042,-705.399C29.793,-597.859 43.514,-82.3812 88,-29 94.6818,-20.9822 104.408,-16.1804 114.46,-13.3474"/>
<polygon fill="midnightblue" stroke="midnightblue" points="23.9032,-705.415 27.1873,-715.488 30.9015,-705.566 23.9032,-705.415"/>
</g>
<!-- Node4 -->
<g id="node4" class="node"><title>Node4</title>
<g id="a_node4"><a xlink:href="class_i_b_switch_control.html" target="_top" xlink:title="A bitmap switch control. ">
<polygon fill="white" stroke="black" points="277,-1380.5 277,-1399.5 365,-1399.5 365,-1380.5 277,-1380.5"/>
<text text-anchor="middle" x="321" y="-1387.5" font-family="Helvetica,sans-Serif" font-size="10.00">IBSwitchControl</text>
</a>
</g>
</g>
<!-- Node3&#45;&gt;Node4 -->
<g id="edge3" class="edge"><title>Node3&#45;&gt;Node4</title>
<path fill="none" stroke="midnightblue" d="M209.235,-1390C230.94,-1390 256.081,-1390 276.919,-1390"/>
<polygon fill="midnightblue" stroke="midnightblue" points="209.212,-1386.5 199.212,-1390 209.212,-1393.5 209.212,-1386.5"/>
</g>
<!-- Node6 -->
<g id="node6" class="node"><title>Node6</title>
<g id="a_node6"><a xlink:href="class_i_b_button_control.html" target="_top" xlink:title="A bitmap button/momentary switch control. ">
<polygon fill="white" stroke="black" points="278,-1342.5 278,-1361.5 364,-1361.5 364,-1342.5 278,-1342.5"/>
<text text-anchor="middle" x="321" y="-1349.5" font-family="Helvetica,sans-Serif" font-size="10.00">IBButtonControl</text>
</a>
</g>
</g>
<!-- Node5&#45;&gt;Node6 -->
<g id="edge5" class="edge"><title>Node5&#45;&gt;Node6</title>
<path fill="none" stroke="midnightblue" d="M219.093,-1352C238.631,-1352 259.887,-1352 277.829,-1352"/>
<polygon fill="midnightblue" stroke="midnightblue" points="219.059,-1348.5 209.059,-1352 219.059,-1355.5 219.059,-1348.5"/>
</g>
<!-- Node7 -->
<g id="node7" class="node"><title>Node7</title>
<g id="a_node7"><a xlink:href="class_i_v_button_control.html" target="_top" xlink:title="A vector button/momentary switch control. ">
<polygon fill="white" stroke="black" points="278,-1304.5 278,-1323.5 364,-1323.5 364,-1304.5 278,-1304.5"/>
<text text-anchor="middle" x="321" y="-1311.5" font-family="Helvetica,sans-Serif" font-size="10.00">IVButtonControl</text>
</a>
</g>
</g>
<!-- Node5&#45;&gt;Node7 -->
<g id="edge6" class="edge"><title>Node5&#45;&gt;Node7</title>
<path fill="none" stroke="midnightblue" d="M209.402,-1340.1C232.032,-1334.76 258.37,-1328.55 279.665,-1323.52"/>
<polygon fill="midnightblue" stroke="midnightblue" points="208.556,-1336.71 199.627,-1342.41 210.164,-1343.52 208.556,-1336.71"/>
</g>
<!-- Node11 -->
<g id="node11" class="node"><title>Node11</title>
<g id="a_node11"><a xlink:href="class_test_dir_browse_control.html" target="_top" xlink:title="Control to test IDirBrowseControlBase. ">
<polygon fill="white" stroke="black" points="264.5,-1228.5 264.5,-1247.5 377.5,-1247.5 377.5,-1228.5 264.5,-1228.5"/>
<text text-anchor="middle" x="321" y="-1235.5" font-family="Helvetica,sans-Serif" font-size="10.00">TestDirBrowseControl</text>
</a>
</g>
</g>
<!-- Node10&#45;&gt;Node11 -->
<g id="edge10" class="edge"><title>Node10&#45;&gt;Node11</title>
<path fill="none" stroke="midnightblue" d="M227.749,-1238C239.989,-1238 252.599,-1238 264.415,-1238"/>
<polygon fill="midnightblue" stroke="midnightblue" points="227.58,-1234.5 217.58,-1238 227.58,-1241.5 227.58,-1234.5"/>
</g>
<!-- Node15 -->
<g id="node15" class="node"><title>Node15</title>
<g id="a_node15"><a xlink:href="class_i_b_knob_control.html" target="_top" xlink:title="A bitmap knob/dial control that draws a frame from a stacked bitmap. ">
<polygon fill="white" stroke="red" points="281,-1190.5 281,-1209.5 361,-1209.5 361,-1190.5 281,-1190.5"/>
<text text-anchor="middle" x="321" y="-1197.5" font-family="Helvetica,sans-Serif" font-size="10.00">IBKnobControl</text>
</a>
</g>
</g>
<!-- Node14&#45;&gt;Node15 -->
<g id="edge14" class="edge"><title>Node14&#45;&gt;Node15</title>
<path fill="none" stroke="midnightblue" d="M215.643,-1136.82C219.947,-1138.62 224.12,-1140.67 228,-1143 247.947,-1154.97 244.411,-1168.45 264,-1181 269.878,-1184.77 276.585,-1187.87 283.265,-1190.4"/>
<polygon fill="midnightblue" stroke="midnightblue" points="216.669,-1133.46 206.076,-1133.25 214.221,-1140.02 216.669,-1133.46"/>
</g>
<!-- Node16 -->
<g id="node16" class="node"><title>Node16</title>
<g id="a_node16"><a xlink:href="class_i_s_v_g_knob.html" target="_top" xlink:title="A vector knob/dial control which rotates an SVG image. ">
<polygon fill="white" stroke="black" points="289.5,-1152.5 289.5,-1171.5 352.5,-1171.5 352.5,-1152.5 289.5,-1152.5"/>
<text text-anchor="middle" x="321" y="-1159.5" font-family="Helvetica,sans-Serif" font-size="10.00">ISVGKnob</text>
</a>
</g>
</g>
<!-- Node14&#45;&gt;Node16 -->
<g id="edge15" class="edge"><title>Node14&#45;&gt;Node16</title>
<path fill="none" stroke="midnightblue" d="M209.393,-1135.89C235.581,-1142.07 266.736,-1149.43 289.297,-1154.75"/>
<polygon fill="midnightblue" stroke="midnightblue" points="210.164,-1132.48 199.627,-1133.59 208.556,-1139.29 210.164,-1132.48"/>
</g>
<!-- Node17 -->
<g id="node17" class="node"><title>Node17</title>
<g id="a_node17"><a xlink:href="class_i_v_knob_control.html" target="_top" xlink:title="A vector knob control drawn using graphics primitves. ">
<polygon fill="white" stroke="black" points="281,-1114.5 281,-1133.5 361,-1133.5 361,-1114.5 281,-1114.5"/>
<text text-anchor="middle" x="321" y="-1121.5" font-family="Helvetica,sans-Serif" font-size="10.00">IVKnobControl</text>
</a>
</g>
</g>
<!-- Node14&#45;&gt;Node17 -->
<g id="edge16" class="edge"><title>Node14&#45;&gt;Node17</title>
<path fill="none" stroke="midnightblue" d="M216.276,-1124C237.659,-1124 261.434,-1124 280.821,-1124"/>
<polygon fill="midnightblue" stroke="midnightblue" points="216.001,-1120.5 206.001,-1124 216.001,-1127.5 216.001,-1120.5"/>
</g>
<!-- Node18 -->
<g id="node18" class="node"><title>Node18</title>
<g id="a_node18"><a xlink:href="class_test_arc_control.html" target="_top" xlink:title="Control to test drawing arcs. ">
<polygon fill="white" stroke="black" points="279.5,-1076.5 279.5,-1095.5 362.5,-1095.5 362.5,-1076.5 279.5,-1076.5"/>
<text text-anchor="middle" x="321" y="-1083.5" font-family="Helvetica,sans-Serif" font-size="10.00">TestArcControl</text>
</a>
</g>
</g>
<!-- Node14&#45;&gt;Node18 -->
<g id="edge17" class="edge"><title>Node14&#45;&gt;Node18</title>
<path fill="none" stroke="midnightblue" d="M209.402,-1112.1C232.032,-1106.76 258.37,-1100.55 279.665,-1095.52"/>
<polygon fill="midnightblue" stroke="midnightblue" points="208.556,-1108.71 199.627,-1114.41 210.164,-1115.52 208.556,-1108.71"/>
</g>
<!-- Node19 -->
<g id="node19" class="node"><title>Node19</title>
<g id="a_node19"><a xlink:href="class_test_blend_control.html" target="_top" xlink:title="Control to test blend methods. ">
<polygon fill="white" stroke="black" points="275,-1038.5 275,-1057.5 367,-1057.5 367,-1038.5 275,-1038.5"/>
<text text-anchor="middle" x="321" y="-1045.5" font-family="Helvetica,sans-Serif" font-size="10.00">TestBlendControl</text>
</a>
</g>
</g>
<!-- Node14&#45;&gt;Node19 -->
<g id="edge18" class="edge"><title>Node14&#45;&gt;Node19</title>
<path fill="none" stroke="midnightblue" d="M215.643,-1111.18C219.947,-1109.38 224.12,-1107.33 228,-1105 247.947,-1093.03 244.411,-1079.55 264,-1067 269.878,-1063.23 276.585,-1060.13 283.265,-1057.6"/>
<polygon fill="midnightblue" stroke="midnightblue" points="214.221,-1107.98 206.076,-1114.75 216.669,-1114.54 214.221,-1107.98"/>
</g>
<!-- Node20 -->
<g id="node20" class="node"><title>Node20</title>
<g id="a_node20"><a xlink:href="class_test_gradient_control.html" target="_top" xlink:title="Control to test drawing gradients with path based drawing backends. ">
<polygon fill="white" stroke="black" points="269,-1000.5 269,-1019.5 373,-1019.5 373,-1000.5 269,-1000.5"/>
<text text-anchor="middle" x="321" y="-1007.5" font-family="Helvetica,sans-Serif" font-size="10.00">TestGradientControl</text>
</a>
</g>
</g>
<!-- Node14&#45;&gt;Node20 -->
<g id="edge19" class="edge"><title>Node14&#45;&gt;Node20</title>
<path fill="none" stroke="midnightblue" d="M215.621,-1112.94C220.068,-1110.75 224.271,-1108.13 228,-1105 256.621,-1080.96 236.093,-1053.86 264,-1029 268.369,-1025.11 273.569,-1022.01 279.013,-1019.54"/>
<polygon fill="midnightblue" stroke="midnightblue" points="214.112,-1109.77 206.229,-1116.85 216.806,-1116.24 214.112,-1109.77"/>
</g>
</g>
</svg>
        <g id="navigator" transform="translate(0 0)" fill="#404254">
                <rect fill="#f2f5e9" fill-opacity="0.5" stroke="#606060" stroke-width=".5" x="0" y="0" width="60" height="60"/>
                <use id="zoomplus" xlink:href="#zoomPlus" x="17" y="9" onmousedown="handleZoom(evt,'in')"/>
                <use id="zoomminus" xlink:href="#zoomMin" x="42" y="9" onmousedown="handleZoom(evt,'out')"/>
                <use id="reset" xlink:href="#resetDef" x="30" y="36" onmousedown="handleReset()"/>
                <g id="arrowUp" xlink:href="#dirArrow" transform="translate(30 24)" onmousedown="handlePan(0,-1)">
                  <use xlink:href="#rim" fill="#404040">
                        <set attributeName="fill" to="#808080" begin="arrowUp.mouseover" end="arrowUp.mouseout"/>
                  </use>
                  <path fill="none" stroke="white" stroke-width="1.5" d="M0,-3.0v7 M-2.5,-0.5L0,-3.0L2.5,-0.5"/>
                </g>
                <g id="arrowRight" xlink:href="#dirArrow" transform="rotate(90) translate(36 -43)" onmousedown="handlePan(1,0)">
                  <use xlink:href="#rim" fill="#404040">
                        <set attributeName="fill" to="#808080" begin="arrowRight.mouseover" end="arrowRight.mouseout"/>
                  </use>
                  <path fill="none" stroke="white" stroke-width="1.5" d="M0,-3.0v7 M-2.5,-0.5L0,-3.0L2.5,-0.5"/>
                </g>
                <g id="arrowDown" xlink:href="#dirArrow" transform="rotate(180) translate(-30 -48)" onmousedown="handlePan(0,1)">
                  <use xlink:href="#rim" fill="#404040">
                        <set attributeName="fill" to="#808080" begin="arrowDown.mouseover" end="arrowDown.mouseout"/>
                  </use>
                  <path fill="none" stroke="white" stroke-width="1.5" d="M0,-3.0v7 M-2.5,-0.5L0,-3.0L2.5,-0.5"/>
                </g>
                <g id="arrowLeft" xlink:href="#dirArrow" transform="rotate(270) translate(-36 17)" onmousedown="handlePan(-1,0)">
                  <use xlink:href="#rim" fill="#404040">
                        <set attributeName="fill" to="#808080" begin="arrowLeft.mouseover" end="arrowLeft.mouseout"/>
                  </use>
                  <path fill="none" stroke="white" stroke-width="1.5" d="M0,-3.0v7 M-2.5,-0.5L0,-3.0L2.5,-0.5"/>
                </g>
        </g>
        <svg viewBox="0 0 15 15" width="100%" height="30px" preserveAspectRatio="xMaxYMin meet">
         <g id="arrow_out" transform="scale(0.3 0.3)">
          <a xlink:href="class_i_control__inherit__graph_org.svg" target="_base">
           <rect id="button" ry="5" rx="5" y="6" x="6" height="38" width="38"
                fill="#f2f5e9" fill-opacity="0.5" stroke="#606060" stroke-width="1.0"/>
           <path id="arrow"
             d="M 11.500037,31.436501 C 11.940474,20.09759 22.043105,11.32322 32.158766,21.979434 L 37.068811,17.246167 C 37.068811,17.246167 37.088388,32 37.088388,32 L 22.160133,31.978069 C 22.160133,31.978069 26.997745,27.140456 26.997745,27.140456 C 18.528582,18.264221 13.291696,25.230495 11.500037,31.436501 z"
             style="fill:#404040;"/>
          </a>
         </g>
        </svg>
</svg>
