<?xml version="1.0" encoding="UTF-8" standalone="no"?>
<!DOCTYPE svg PUBLIC "-//W3C//DTD SVG 1.1//EN"
 "http://www.w3.org/Graphics/SVG/1.1/DTD/svg11.dtd">
<!-- Generated by graphviz version 2.36.0 (20140111.2315)
 -->
<!-- Title: IVTrackControlBase Pages: 1 -->
<svg width="390pt" height="126pt"
 viewBox="0.00 0.00 390.00 126.00" xmlns="http://www.w3.org/2000/svg" xmlns:xlink="http://www.w3.org/1999/xlink">
<g id="graph0" class="graph" transform="scale(1 1) rotate(0) translate(4 122)">
<title>IVTrackControlBase</title>
<polygon fill="white" stroke="none" points="-4,4 -4,-122 386,-122 386,4 -4,4"/>
<!-- Node1 -->
<g id="node1" class="node"><title>Node1</title>
<polygon fill="#bfbfbf" stroke="black" points="108.5,-44.5 108.5,-63.5 213.5,-63.5 213.5,-44.5 108.5,-44.5"/>
<text text-anchor="middle" x="161" y="-51.5" font-family="Helvetica,sans-Serif" font-size="10.00">IVTrackControlBase</text>
</g>
<!-- Node4 -->
<g id="node4" class="node"><title>Node4</title>
<g id="a_node4"><a xlink:href="class_i_v_meter_control.html" target="_top" xlink:title="Vectorial multichannel capable meter control. ">
<polygon fill="white" stroke="black" points="250.5,-88 250.5,-118 381.5,-118 381.5,-88 250.5,-88"/>
<text text-anchor="start" x="258.5" y="-106" font-family="Helvetica,sans-Serif" font-size="10.00">IVMeterControl&lt; MAXNC,</text>
<text text-anchor="middle" x="316" y="-95" font-family="Helvetica,sans-Serif" font-size="10.00"> QUEUE_SIZE &gt;</text>
</a>
</g>
</g>
<!-- Node1&#45;&gt;Node4 -->
<g id="edge3" class="edge"><title>Node1&#45;&gt;Node4</title>
<path fill="none" stroke="midnightblue" d="M201.441,-66.6313C221.778,-73.1446 246.723,-81.1334 268.048,-87.963"/>
<polygon fill="midnightblue" stroke="midnightblue" points="202.454,-63.2809 191.863,-63.564 200.319,-69.9473 202.454,-63.2809"/>
</g>
<!-- Node5 -->
<g id="node5" class="node"><title>Node5</title>
<g id="a_node5"><a xlink:href="class_i_v_multi_slider_control.html" target="_top" xlink:title="A vectorial multi&#45;slider control. ">
<polygon fill="white" stroke="black" points="264,-39 264,-69 368,-69 368,-39 264,-39"/>
<text text-anchor="start" x="272" y="-57" font-family="Helvetica,sans-Serif" font-size="10.00">IVMultiSliderControl</text>
<text text-anchor="middle" x="316" y="-46" font-family="Helvetica,sans-Serif" font-size="10.00">&lt; MAXNC &gt;</text>
</a>
</g>
</g>
<!-- Node1&#45;&gt;Node5 -->
<g id="edge4" class="edge"><title>Node1&#45;&gt;Node5</title>
<path fill="none" stroke="midnightblue" d="M223.8,-54C237.071,-54 250.956,-54 263.774,-54"/>
<polygon fill="midnightblue" stroke="midnightblue" points="223.799,-50.5001 213.799,-54 223.799,-57.5001 223.799,-50.5001"/>
</g>
<!-- Node6 -->
<g id="node6" class="node"><title>Node6</title>
<g id="a_node6"><a xlink:href="class_i_v_range_slider_control.html" target="_top" xlink:title="IVRangeSliderControl">
<polygon fill="white" stroke="black" points="260.5,-0.5 260.5,-19.5 371.5,-19.5 371.5,-0.5 260.5,-0.5"/>
<text text-anchor="middle" x="316" y="-7.5" font-family="Helvetica,sans-Serif" font-size="10.00">IVRangeSliderControl</text>
</a>
</g>
</g>
<!-- Node1&#45;&gt;Node6 -->
<g id="edge5" class="edge"><title>Node1&#45;&gt;Node6</title>
<path fill="none" stroke="midnightblue" d="M204.914,-41.6588C229.283,-34.6507 259.325,-26.0112 281.866,-19.5287"/>
<polygon fill="midnightblue" stroke="midnightblue" points="203.842,-38.3251 195.199,-44.4527 205.777,-45.0525 203.842,-38.3251"/>
</g>
<!-- Node2 -->
<g id="node2" class="node"><title>Node2</title>
<g id="a_node2"><a xlink:href="class_i_control.html" target="_top" xlink:title="The lowest level base class of an IGraphics control. ">
<polygon fill="white" stroke="black" points="10.5,-63.5 10.5,-82.5 61.5,-82.5 61.5,-63.5 10.5,-63.5"/>
<text text-anchor="middle" x="36" y="-70.5" font-family="Helvetica,sans-Serif" font-size="10.00">IControl</text>
</a>
</g>
</g>
<!-- Node2&#45;&gt;Node1 -->
<g id="edge1" class="edge"><title>Node2&#45;&gt;Node1</title>
<path fill="none" stroke="midnightblue" d="M71.5612,-67.6613C82.9479,-65.9024 95.87,-63.9063 108.251,-61.9937"/>
<polygon fill="midnightblue" stroke="midnightblue" points="70.9437,-64.2151 61.5953,-69.2007 72.0124,-71.133 70.9437,-64.2151"/>
</g>
<!-- Node3 -->
<g id="node3" class="node"><title>Node3</title>
<g id="a_node3"><a xlink:href="class_i_vector_base.html" target="_top" xlink:title="A base interface to be combined with IControl for vectorial controls &quot;IVControls&quot;, in order for them to share a common style If you need more flexibility, you&#39;re on your own! ">
<polygon fill="white" stroke="black" points="0.5,-25.5 0.5,-44.5 71.5,-44.5 71.5,-25.5 0.5,-25.5"/>
<text text-anchor="middle" x="36" y="-32.5" font-family="Helvetica,sans-Serif" font-size="10.00">IVectorBase</text>
</a>
</g>
</g>
<!-- Node3&#45;&gt;Node1 -->
<g id="edge2" class="edge"><title>Node3&#45;&gt;Node1</title>
<path fill="none" stroke="midnightblue" d="M81.4989,-41.8738C90.1707,-43.2134 99.3319,-44.6285 108.216,-46.0008"/>
<polygon fill="midnightblue" stroke="midnightblue" points="82.0068,-38.4108 71.5897,-40.3431 80.9381,-45.3288 82.0068,-38.4108"/>
</g>
</g>
</svg>
