<?xml version="1.0" encoding="UTF-8" standalone="no"?>
<!DOCTYPE svg PUBLIC "-//W3C//DTD SVG 1.1//EN"
 "http://www.w3.org/Graphics/SVG/1.1/DTD/svg11.dtd">
<!-- Generated by graphviz version 2.36.0 (20140111.2315)
 -->
<!-- Title: ISwitchControlBase Pages: 1 -->
<svg width="353pt" height="196pt"
 viewBox="0.00 0.00 353.00 196.00" xmlns="http://www.w3.org/2000/svg" xmlns:xlink="http://www.w3.org/1999/xlink">
<g id="graph0" class="graph" transform="scale(1 1) rotate(0) translate(4 192)">
<title>ISwitchControlBase</title>
<polygon fill="white" stroke="none" points="-4,4 -4,-192 349,-192 349,4 -4,4"/>
<!-- Node1 -->
<g id="node1" class="node"><title>Node1</title>
<polygon fill="#bfbfbf" stroke="black" points="177,-112.5 177,-131.5 281,-131.5 281,-112.5 177,-112.5"/>
<text text-anchor="middle" x="229" y="-119.5" font-family="Helvetica,sans-Serif" font-size="10.00">ISwitchControlBase</text>
</g>
<!-- Node3 -->
<g id="node3" class="node"><title>Node3</title>
<g id="a_node3"><a xlink:href="class_i_v_switch_control.html" target="_top" xlink:title="A vector switch control. ">
<polygon fill="white" stroke="black" points="128,-56.5 128,-75.5 216,-75.5 216,-56.5 128,-56.5"/>
<text text-anchor="middle" x="172" y="-63.5" font-family="Helvetica,sans-Serif" font-size="10.00">IVSwitchControl</text>
</a>
</g>
</g>
<!-- Node1&#45;&gt;Node3 -->
<g id="edge2" class="edge"><title>Node1&#45;&gt;Node3</title>
<path fill="none" stroke="midnightblue" d="M212.379,-105.253C202.266,-95.6731 189.723,-83.7906 181.325,-75.8339"/>
<polygon fill="midnightblue" stroke="midnightblue" points="210.175,-107.987 219.842,-112.324 214.99,-102.906 210.175,-107.987"/>
</g>
<!-- Node6 -->
<g id="node6" class="node"><title>Node6</title>
<g id="a_node6"><a xlink:href="class_i_v_tab_switch_control.html" target="_top" xlink:title="A vector &quot;tab&quot; multi switch control. ">
<polygon fill="white" stroke="black" points="236,-56.5 236,-75.5 340,-75.5 340,-56.5 236,-56.5"/>
<text text-anchor="middle" x="288" y="-63.5" font-family="Helvetica,sans-Serif" font-size="10.00">IVTabSwitchControl</text>
</a>
</g>
</g>
<!-- Node1&#45;&gt;Node6 -->
<g id="edge5" class="edge"><title>Node1&#45;&gt;Node6</title>
<path fill="none" stroke="midnightblue" d="M245.895,-105.537C256.415,-95.9087 269.569,-83.8694 278.348,-75.8339"/>
<polygon fill="midnightblue" stroke="midnightblue" points="243.493,-102.99 238.479,-112.324 248.219,-108.154 243.493,-102.99"/>
</g>
<!-- Node2 -->
<g id="node2" class="node"><title>Node2</title>
<g id="a_node2"><a xlink:href="class_i_control.html" target="_top" xlink:title="The lowest level base class of an IGraphics control. ">
<polygon fill="white" stroke="black" points="203.5,-168.5 203.5,-187.5 254.5,-187.5 254.5,-168.5 203.5,-168.5"/>
<text text-anchor="middle" x="229" y="-175.5" font-family="Helvetica,sans-Serif" font-size="10.00">IControl</text>
</a>
</g>
</g>
<!-- Node2&#45;&gt;Node1 -->
<g id="edge1" class="edge"><title>Node2&#45;&gt;Node1</title>
<path fill="none" stroke="midnightblue" d="M229,-157.805C229,-148.91 229,-138.78 229,-131.751"/>
<polygon fill="midnightblue" stroke="midnightblue" points="225.5,-158.083 229,-168.083 232.5,-158.083 225.5,-158.083"/>
</g>
<!-- Node4 -->
<g id="node4" class="node"><title>Node4</title>
<g id="a_node4"><a xlink:href="class_i_v_slide_switch_control.html" target="_top" xlink:title="/todo. ">
<polygon fill="white" stroke="black" points="0,-0.5 0,-19.5 110,-19.5 110,-0.5 0,-0.5"/>
<text text-anchor="middle" x="55" y="-7.5" font-family="Helvetica,sans-Serif" font-size="10.00">IVSlideSwitchControl</text>
</a>
</g>
</g>
<!-- Node3&#45;&gt;Node4 -->
<g id="edge3" class="edge"><title>Node3&#45;&gt;Node4</title>
<path fill="none" stroke="midnightblue" d="M144.336,-52.2321C122.451,-42.1312 92.5032,-28.3091 73.4523,-19.5164"/>
<polygon fill="midnightblue" stroke="midnightblue" points="142.915,-55.4308 153.461,-56.4435 145.848,-49.075 142.915,-55.4308"/>
</g>
<!-- Node5 -->
<g id="node5" class="node"><title>Node5</title>
<g id="a_node5"><a xlink:href="class_i_v_toggle_control.html" target="_top" xlink:title="A vector toggle control. ">
<polygon fill="white" stroke="black" points="128.5,-0.5 128.5,-19.5 215.5,-19.5 215.5,-0.5 128.5,-0.5"/>
<text text-anchor="middle" x="172" y="-7.5" font-family="Helvetica,sans-Serif" font-size="10.00">IVToggleControl</text>
</a>
</g>
</g>
<!-- Node3&#45;&gt;Node5 -->
<g id="edge4" class="edge"><title>Node3&#45;&gt;Node5</title>
<path fill="none" stroke="midnightblue" d="M172,-45.8045C172,-36.9102 172,-26.7798 172,-19.7511"/>
<polygon fill="midnightblue" stroke="midnightblue" points="168.5,-46.083 172,-56.083 175.5,-46.083 168.5,-46.083"/>
</g>
<!-- Node7 -->
<g id="node7" class="node"><title>Node7</title>
<g id="a_node7"><a xlink:href="class_i_v_radio_button_control.html" target="_top" xlink:title="A vector radio button control. ">
<polygon fill="white" stroke="black" points="234,-0.5 234,-19.5 346,-19.5 346,-0.5 234,-0.5"/>
<text text-anchor="middle" x="290" y="-7.5" font-family="Helvetica,sans-Serif" font-size="10.00">IVRadioButtonControl</text>
</a>
</g>
</g>
<!-- Node6&#45;&gt;Node7 -->
<g id="edge6" class="edge"><title>Node6&#45;&gt;Node7</title>
<path fill="none" stroke="midnightblue" d="M288.711,-45.8045C289.04,-36.9102 289.416,-26.7798 289.676,-19.7511"/>
<polygon fill="midnightblue" stroke="midnightblue" points="285.203,-45.9603 288.33,-56.083 292.198,-46.2194 285.203,-45.9603"/>
</g>
</g>
</svg>
