<?xml version="1.0" encoding="UTF-8" standalone="no"?>
<!DOCTYPE svg PUBLIC "-//W3C//DTD SVG 1.1//EN"
 "http://www.w3.org/Graphics/SVG/1.1/DTD/svg11.dtd">
<!-- Generated by graphviz version 2.36.0 (20140111.2315)
 -->
<!-- Title: IVSwitchControl Pages: 1 -->
<svg width="223pt" height="196pt"
 viewBox="0.00 0.00 223.00 196.00" xmlns="http://www.w3.org/2000/svg" xmlns:xlink="http://www.w3.org/1999/xlink">
<g id="graph0" class="graph" transform="scale(1 1) rotate(0) translate(4 192)">
<title>IVSwitchControl</title>
<polygon fill="white" stroke="none" points="-4,4 -4,-192 219,-192 219,4 -4,4"/>
<!-- Node1 -->
<g id="node1" class="node"><title>Node1</title>
<polygon fill="#bfbfbf" stroke="black" points="69,-56.5 69,-75.5 157,-75.5 157,-56.5 69,-56.5"/>
<text text-anchor="middle" x="113" y="-63.5" font-family="Helvetica,sans-Serif" font-size="10.00">IVSwitchControl</text>
</g>
<!-- Node5 -->
<g id="node5" class="node"><title>Node5</title>
<g id="a_node5"><a xlink:href="class_i_v_slide_switch_control.html" target="_top" xlink:title="/todo. ">
<polygon fill="white" stroke="black" points="0,-0.5 0,-19.5 110,-19.5 110,-0.5 0,-0.5"/>
<text text-anchor="middle" x="55" y="-7.5" font-family="Helvetica,sans-Serif" font-size="10.00">IVSlideSwitchControl</text>
</a>
</g>
</g>
<!-- Node1&#45;&gt;Node5 -->
<g id="edge4" class="edge"><title>Node1&#45;&gt;Node5</title>
<path fill="none" stroke="midnightblue" d="M96.0869,-49.2533C85.797,-39.6731 73.0343,-27.7906 64.4883,-19.8339"/>
<polygon fill="midnightblue" stroke="midnightblue" points="93.9774,-52.0714 103.681,-56.324 98.7473,-46.9481 93.9774,-52.0714"/>
</g>
<!-- Node6 -->
<g id="node6" class="node"><title>Node6</title>
<g id="a_node6"><a xlink:href="class_i_v_toggle_control.html" target="_top" xlink:title="A vector toggle control. ">
<polygon fill="white" stroke="black" points="128.5,-0.5 128.5,-19.5 215.5,-19.5 215.5,-0.5 128.5,-0.5"/>
<text text-anchor="middle" x="172" y="-7.5" font-family="Helvetica,sans-Serif" font-size="10.00">IVToggleControl</text>
</a>
</g>
</g>
<!-- Node1&#45;&gt;Node6 -->
<g id="edge5" class="edge"><title>Node1&#45;&gt;Node6</title>
<path fill="none" stroke="midnightblue" d="M129.895,-49.5372C140.415,-39.9087 153.569,-27.8694 162.348,-19.8339"/>
<polygon fill="midnightblue" stroke="midnightblue" points="127.493,-46.9905 122.479,-56.324 132.219,-52.1542 127.493,-46.9905"/>
</g>
<!-- Node2 -->
<g id="node2" class="node"><title>Node2</title>
<g id="a_node2"><a xlink:href="class_i_switch_control_base.html" target="_top" xlink:title="A base class for switch controls. ">
<polygon fill="white" stroke="black" points="8,-112.5 8,-131.5 112,-131.5 112,-112.5 8,-112.5"/>
<text text-anchor="middle" x="60" y="-119.5" font-family="Helvetica,sans-Serif" font-size="10.00">ISwitchControlBase</text>
</a>
</g>
</g>
<!-- Node2&#45;&gt;Node1 -->
<g id="edge1" class="edge"><title>Node2&#45;&gt;Node1</title>
<path fill="none" stroke="midnightblue" d="M75.9809,-104.718C85.3225,-95.1997 96.7459,-83.5608 104.411,-75.7511"/>
<polygon fill="midnightblue" stroke="midnightblue" points="73.2587,-102.494 68.7519,-112.083 78.2545,-107.398 73.2587,-102.494"/>
</g>
<!-- Node3 -->
<g id="node3" class="node"><title>Node3</title>
<g id="a_node3"><a xlink:href="class_i_control.html" target="_top" xlink:title="The lowest level base class of an IGraphics control. ">
<polygon fill="white" stroke="black" points="34.5,-168.5 34.5,-187.5 85.5,-187.5 85.5,-168.5 34.5,-168.5"/>
<text text-anchor="middle" x="60" y="-175.5" font-family="Helvetica,sans-Serif" font-size="10.00">IControl</text>
</a>
</g>
</g>
<!-- Node3&#45;&gt;Node2 -->
<g id="edge2" class="edge"><title>Node3&#45;&gt;Node2</title>
<path fill="none" stroke="midnightblue" d="M60,-157.805C60,-148.91 60,-138.78 60,-131.751"/>
<polygon fill="midnightblue" stroke="midnightblue" points="56.5001,-158.083 60,-168.083 63.5001,-158.083 56.5001,-158.083"/>
</g>
<!-- Node4 -->
<g id="node4" class="node"><title>Node4</title>
<g id="a_node4"><a xlink:href="class_i_vector_base.html" target="_top" xlink:title="A base interface to be combined with IControl for vectorial controls &quot;IVControls&quot;, in order for them to share a common style If you need more flexibility, you&#39;re on your own! ">
<polygon fill="white" stroke="black" points="130.5,-112.5 130.5,-131.5 201.5,-131.5 201.5,-112.5 130.5,-112.5"/>
<text text-anchor="middle" x="166" y="-119.5" font-family="Helvetica,sans-Serif" font-size="10.00">IVectorBase</text>
</a>
</g>
</g>
<!-- Node4&#45;&gt;Node1 -->
<g id="edge3" class="edge"><title>Node4&#45;&gt;Node1</title>
<path fill="none" stroke="midnightblue" d="M150.019,-104.718C140.678,-95.1997 129.254,-83.5608 121.589,-75.7511"/>
<polygon fill="midnightblue" stroke="midnightblue" points="147.746,-107.398 157.248,-112.083 152.741,-102.494 147.746,-107.398"/>
</g>
</g>
</svg>
