<?xml version="1.0" encoding="UTF-8" standalone="no"?>
<!DOCTYPE svg PUBLIC "-//W3C//DTD SVG 1.1//EN"
 "http://www.w3.org/Graphics/SVG/1.1/DTD/svg11.dtd">
<!-- Generated by graphviz version 2.36.0 (20140111.2315)
 -->
<!-- Title: IVectorBase Pages: 1 -->
<svg width="424pt" height="557pt"
 viewBox="0.00 0.00 424.00 557.00" xmlns="http://www.w3.org/2000/svg" xmlns:xlink="http://www.w3.org/1999/xlink">
<g id="graph0" class="graph" transform="scale(1 1) rotate(0) translate(4 553)">
<title>IVectorBase</title>
<polygon fill="white" stroke="none" points="-4,4 -4,-553 420,-553 420,4 -4,4"/>
<!-- Node1 -->
<g id="node1" class="node"><title>Node1</title>
<polygon fill="#bfbfbf" stroke="black" points="0.5,-301.5 0.5,-320.5 71.5,-320.5 71.5,-301.5 0.5,-301.5"/>
<text text-anchor="middle" x="36" y="-308.5" font-family="Helvetica,sans-Serif" font-size="10.00">IVectorBase</text>
</g>
<!-- Node2 -->
<g id="node2" class="node"><title>Node2</title>
<g id="a_node2"><a xlink:href="class_i_f_p_s_display_control.html" target="_top" xlink:title="Performance display meter, based on code from NanoVG This is a special control that lives outside the...">
<polygon fill="white" stroke="black" points="126,-529.5 126,-548.5 230,-548.5 230,-529.5 126,-529.5"/>
<text text-anchor="middle" x="178" y="-536.5" font-family="Helvetica,sans-Serif" font-size="10.00">IFPSDisplayControl</text>
</a>
</g>
</g>
<!-- Node1&#45;&gt;Node2 -->
<g id="edge1" class="edge"><title>Node1&#45;&gt;Node2</title>
<path fill="none" stroke="midnightblue" d="M37.8043,-330.659C40.5823,-371.937 52.9509,-468.095 108,-520 113.063,-524.773 119.212,-528.368 125.73,-531.07"/>
<polygon fill="midnightblue" stroke="midnightblue" points="41.2924,-330.346 37.2475,-320.554 34.303,-330.731 41.2924,-330.346"/>
</g>
<!-- Node3 -->
<g id="node3" class="node"><title>Node3</title>
<g id="a_node3"><a xlink:href="class_i_v_button_control.html" target="_top" xlink:title="A vector button/momentary switch control. ">
<polygon fill="white" stroke="black" points="135,-491.5 135,-510.5 221,-510.5 221,-491.5 135,-491.5"/>
<text text-anchor="middle" x="178" y="-498.5" font-family="Helvetica,sans-Serif" font-size="10.00">IVButtonControl</text>
</a>
</g>
</g>
<!-- Node1&#45;&gt;Node3 -->
<g id="edge2" class="edge"><title>Node1&#45;&gt;Node3</title>
<path fill="none" stroke="midnightblue" d="M39.557,-330.957C45.2062,-366.66 62.1084,-441.508 108,-482 115.547,-488.659 125.225,-493.006 134.932,-495.838"/>
<polygon fill="midnightblue" stroke="midnightblue" points="42.9886,-330.231 38.0958,-320.834 36.0604,-331.231 42.9886,-330.231"/>
</g>
<!-- Node4 -->
<g id="node4" class="node"><title>Node4</title>
<g id="a_node4"><a xlink:href="class_i_v_display_control.html" target="_top" xlink:title="IVDisplayControl">
<polygon fill="white" stroke="black" points="132.5,-453.5 132.5,-472.5 223.5,-472.5 223.5,-453.5 132.5,-453.5"/>
<text text-anchor="middle" x="178" y="-460.5" font-family="Helvetica,sans-Serif" font-size="10.00">IVDisplayControl</text>
</a>
</g>
</g>
<!-- Node1&#45;&gt;Node4 -->
<g id="edge3" class="edge"><title>Node1&#45;&gt;Node4</title>
<path fill="none" stroke="midnightblue" d="M42.0735,-330.563C50.6555,-359.71 70.842,-414.284 108,-444 115.084,-449.665 123.738,-453.644 132.491,-456.438"/>
<polygon fill="midnightblue" stroke="midnightblue" points="45.3936,-329.438 39.3414,-320.742 38.6496,-331.314 45.3936,-329.438"/>
</g>
<!-- Node5 -->
<g id="node5" class="node"><title>Node5</title>
<g id="a_node5"><a xlink:href="class_i_v_keyboard_control.html" target="_top" xlink:title="Vectorial keyboard control. ">
<polygon fill="white" stroke="black" points="128.5,-415.5 128.5,-434.5 227.5,-434.5 227.5,-415.5 128.5,-415.5"/>
<text text-anchor="middle" x="178" y="-422.5" font-family="Helvetica,sans-Serif" font-size="10.00">IVKeyboardControl</text>
</a>
</g>
</g>
<!-- Node1&#45;&gt;Node5 -->
<g id="edge4" class="edge"><title>Node1&#45;&gt;Node5</title>
<path fill="none" stroke="midnightblue" d="M46.2027,-329.916C57.6918,-351.54 79.3698,-386.462 108,-406 114.158,-410.202 121.219,-413.478 128.423,-416.032"/>
<polygon fill="midnightblue" stroke="midnightblue" points="49.1896,-328.069 41.5236,-320.756 42.9559,-331.254 49.1896,-328.069"/>
</g>
<!-- Node6 -->
<g id="node6" class="node"><title>Node6</title>
<g id="a_node6"><a xlink:href="class_i_v_knob_control.html" target="_top" xlink:title="A vector knob control drawn using graphics primitves. ">
<polygon fill="white" stroke="black" points="138,-377.5 138,-396.5 218,-396.5 218,-377.5 138,-377.5"/>
<text text-anchor="middle" x="178" y="-384.5" font-family="Helvetica,sans-Serif" font-size="10.00">IVKnobControl</text>
</a>
</g>
</g>
<!-- Node1&#45;&gt;Node6 -->
<g id="edge5" class="edge"><title>Node1&#45;&gt;Node6</title>
<path fill="none" stroke="midnightblue" d="M53.7489,-327.775C67.3167,-340.491 87.4862,-357.513 108,-368 117.293,-372.751 127.917,-376.43 137.997,-379.228"/>
<polygon fill="midnightblue" stroke="midnightblue" points="55.8395,-324.929 46.21,-320.51 50.9823,-329.969 55.8395,-324.929"/>
</g>
<!-- Node7 -->
<g id="node7" class="node"><title>Node7</title>
<g id="a_node7"><a xlink:href="class_i_v_label_control.html" target="_top" xlink:title="IVLabelControl">
<polygon fill="white" stroke="black" points="137.5,-339.5 137.5,-358.5 218.5,-358.5 218.5,-339.5 137.5,-339.5"/>
<text text-anchor="middle" x="178" y="-346.5" font-family="Helvetica,sans-Serif" font-size="10.00">IVLabelControl</text>
</a>
</g>
</g>
<!-- Node1&#45;&gt;Node7 -->
<g id="edge6" class="edge"><title>Node1&#45;&gt;Node7</title>
<path fill="none" stroke="midnightblue" d="M81.4824,-323.074C100.975,-328.365 123.525,-334.485 141.819,-339.451"/>
<polygon fill="midnightblue" stroke="midnightblue" points="82.1744,-319.635 71.6068,-320.393 80.3407,-326.391 82.1744,-319.635"/>
</g>
<!-- Node8 -->
<g id="node8" class="node"><title>Node8</title>
<g id="a_node8"><a xlink:href="class_i_v_plot_control.html" target="_top" xlink:title="IVPlotControl">
<polygon fill="white" stroke="black" points="140.5,-301.5 140.5,-320.5 215.5,-320.5 215.5,-301.5 140.5,-301.5"/>
<text text-anchor="middle" x="178" y="-308.5" font-family="Helvetica,sans-Serif" font-size="10.00">IVPlotControl</text>
</a>
</g>
</g>
<!-- Node1&#45;&gt;Node8 -->
<g id="edge7" class="edge"><title>Node1&#45;&gt;Node8</title>
<path fill="none" stroke="midnightblue" d="M81.7752,-311C100.679,-311 122.416,-311 140.345,-311"/>
<polygon fill="midnightblue" stroke="midnightblue" points="81.6068,-307.5 71.6068,-311 81.6067,-314.5 81.6068,-307.5"/>
</g>
<!-- Node9 -->
<g id="node9" class="node"><title>Node9</title>
<g id="a_node9"><a xlink:href="class_i_v_scope_control.html" target="_top" xlink:title="Vectorial multichannel capable oscilloscope control. ">
<polygon fill="white" stroke="black" points="108,-252 108,-282 248,-282 248,-252 108,-252"/>
<text text-anchor="start" x="116" y="-270" font-family="Helvetica,sans-Serif" font-size="10.00">IVScopeControl&lt; MAXNC,</text>
<text text-anchor="middle" x="178" y="-259" font-family="Helvetica,sans-Serif" font-size="10.00"> MAXBUF, QUEUE_SIZE &gt;</text>
</a>
</g>
</g>
<!-- Node1&#45;&gt;Node9 -->
<g id="edge8" class="edge"><title>Node1&#45;&gt;Node9</title>
<path fill="none" stroke="midnightblue" d="M77.0884,-298.401C93.2962,-293.307 112.139,-287.385 129.065,-282.065"/>
<polygon fill="midnightblue" stroke="midnightblue" points="75.8684,-295.115 67.3779,-301.453 77.9673,-301.793 75.8684,-295.115"/>
</g>
<!-- Node10 -->
<g id="node10" class="node"><title>Node10</title>
<g id="a_node10"><a xlink:href="class_i_v_slider_control.html" target="_top" xlink:title="A vector slider control. ">
<polygon fill="white" stroke="black" points="136.5,-213.5 136.5,-232.5 219.5,-232.5 219.5,-213.5 136.5,-213.5"/>
<text text-anchor="middle" x="178" y="-220.5" font-family="Helvetica,sans-Serif" font-size="10.00">IVSliderControl</text>
</a>
</g>
</g>
<!-- Node1&#45;&gt;Node10 -->
<g id="edge9" class="edge"><title>Node1&#45;&gt;Node10</title>
<path fill="none" stroke="midnightblue" d="M51.0998,-293.338C64.2806,-277.944 85.2934,-256.091 108,-243 116.644,-238.017 126.624,-234.195 136.261,-231.295"/>
<polygon fill="midnightblue" stroke="midnightblue" points="48.3243,-291.201 44.622,-301.128 53.7067,-295.677 48.3243,-291.201"/>
</g>
<!-- Node11 -->
<g id="node11" class="node"><title>Node11</title>
<g id="a_node11"><a xlink:href="class_i_v_switch_control.html" target="_top" xlink:title="A vector switch control. ">
<polygon fill="white" stroke="black" points="134,-175.5 134,-194.5 222,-194.5 222,-175.5 134,-175.5"/>
<text text-anchor="middle" x="178" y="-182.5" font-family="Helvetica,sans-Serif" font-size="10.00">IVSwitchControl</text>
</a>
</g>
</g>
<!-- Node1&#45;&gt;Node11 -->
<g id="edge10" class="edge"><title>Node1&#45;&gt;Node11</title>
<path fill="none" stroke="midnightblue" d="M44.6362,-291.83C55.2347,-267.699 76.7008,-226.669 108,-204 115.648,-198.461 124.836,-194.536 133.976,-191.755"/>
<polygon fill="midnightblue" stroke="midnightblue" points="41.2963,-290.744 40.6483,-301.319 47.7495,-293.456 41.2963,-290.744"/>
</g>
<!-- Node14 -->
<g id="node14" class="node"><title>Node14</title>
<g id="a_node14"><a xlink:href="class_i_v_tab_switch_control.html" target="_top" xlink:title="A vector &quot;tab&quot; multi switch control. ">
<polygon fill="white" stroke="black" points="126,-137.5 126,-156.5 230,-156.5 230,-137.5 126,-137.5"/>
<text text-anchor="middle" x="178" y="-144.5" font-family="Helvetica,sans-Serif" font-size="10.00">IVTabSwitchControl</text>
</a>
</g>
</g>
<!-- Node1&#45;&gt;Node14 -->
<g id="edge13" class="edge"><title>Node1&#45;&gt;Node14</title>
<path fill="none" stroke="midnightblue" d="M41.2215,-291.036C48.9102,-259.656 68.2144,-198.976 108,-166 113.261,-161.639 119.447,-158.275 125.917,-155.681"/>
<polygon fill="midnightblue" stroke="midnightblue" points="37.7224,-290.637 38.898,-301.166 44.5452,-292.202 37.7224,-290.637"/>
</g>
<!-- Node16 -->
<g id="node16" class="node"><title>Node16</title>
<g id="a_node16"><a xlink:href="class_i_v_track_control_base.html" target="_top" xlink:title="A base class for mult&#45;strip/track controls, such as multi&#45;sliders, meters. ">
<polygon fill="white" stroke="black" points="125.5,-93.5 125.5,-112.5 230.5,-112.5 230.5,-93.5 125.5,-93.5"/>
<text text-anchor="middle" x="178" y="-100.5" font-family="Helvetica,sans-Serif" font-size="10.00">IVTrackControlBase</text>
</a>
</g>
</g>
<!-- Node1&#45;&gt;Node16 -->
<g id="edge15" class="edge"><title>Node1&#45;&gt;Node16</title>
<path fill="none" stroke="midnightblue" d="M39.3114,-291.056C44.6492,-253.913 61.186,-173.773 108,-128 115.015,-121.141 124.052,-116.147 133.261,-112.515"/>
<polygon fill="midnightblue" stroke="midnightblue" points="35.8221,-290.746 37.9933,-301.116 42.7628,-291.656 35.8221,-290.746"/>
</g>
<!-- Node20 -->
<g id="node20" class="node"><title>Node20</title>
<g id="a_node20"><a xlink:href="class_i_v_x_y_pad_control.html" target="_top" xlink:title="IVXYPadControl">
<polygon fill="white" stroke="black" points="133.5,-55.5 133.5,-74.5 222.5,-74.5 222.5,-55.5 133.5,-55.5"/>
<text text-anchor="middle" x="178" y="-62.5" font-family="Helvetica,sans-Serif" font-size="10.00">IVXYPadControl</text>
</a>
</g>
</g>
<!-- Node1&#45;&gt;Node20 -->
<g id="edge19" class="edge"><title>Node1&#45;&gt;Node20</title>
<path fill="none" stroke="midnightblue" d="M37.1983,-290.874C38.7609,-246.804 48.8448,-141.153 108,-84 114.97,-77.2661 124.098,-72.8717 133.422,-70.0165"/>
<polygon fill="midnightblue" stroke="midnightblue" points="33.6931,-291.055 36.9546,-301.135 40.6911,-291.221 33.6931,-291.055"/>
</g>
<!-- Node12 -->
<g id="node12" class="node"><title>Node12</title>
<g id="a_node12"><a xlink:href="class_i_v_slide_switch_control.html" target="_top" xlink:title="/todo. ">
<polygon fill="white" stroke="black" points="295,-213.5 295,-232.5 405,-232.5 405,-213.5 295,-213.5"/>
<text text-anchor="middle" x="350" y="-220.5" font-family="Helvetica,sans-Serif" font-size="10.00">IVSlideSwitchControl</text>
</a>
</g>
</g>
<!-- Node11&#45;&gt;Node12 -->
<g id="edge11" class="edge"><title>Node11&#45;&gt;Node12</title>
<path fill="none" stroke="midnightblue" d="M231.898,-196.824C255.865,-202.182 283.824,-208.431 306.41,-213.48"/>
<polygon fill="midnightblue" stroke="midnightblue" points="232.421,-193.355 221.898,-194.589 230.894,-200.186 232.421,-193.355"/>
</g>
<!-- Node13 -->
<g id="node13" class="node"><title>Node13</title>
<g id="a_node13"><a xlink:href="class_i_v_toggle_control.html" target="_top" xlink:title="A vector toggle control. ">
<polygon fill="white" stroke="black" points="306.5,-175.5 306.5,-194.5 393.5,-194.5 393.5,-175.5 306.5,-175.5"/>
<text text-anchor="middle" x="350" y="-182.5" font-family="Helvetica,sans-Serif" font-size="10.00">IVToggleControl</text>
</a>
</g>
</g>
<!-- Node11&#45;&gt;Node13 -->
<g id="edge12" class="edge"><title>Node11&#45;&gt;Node13</title>
<path fill="none" stroke="midnightblue" d="M232.614,-185C256.392,-185 283.982,-185 306.33,-185"/>
<polygon fill="midnightblue" stroke="midnightblue" points="232.338,-181.5 222.338,-185 232.338,-188.5 232.338,-181.5"/>
</g>
<!-- Node15 -->
<g id="node15" class="node"><title>Node15</title>
<g id="a_node15"><a xlink:href="class_i_v_radio_button_control.html" target="_top" xlink:title="A vector radio button control. ">
<polygon fill="white" stroke="black" points="294,-137.5 294,-156.5 406,-156.5 406,-137.5 294,-137.5"/>
<text text-anchor="middle" x="350" y="-144.5" font-family="Helvetica,sans-Serif" font-size="10.00">IVRadioButtonControl</text>
</a>
</g>
</g>
<!-- Node14&#45;&gt;Node15 -->
<g id="edge14" class="edge"><title>Node14&#45;&gt;Node15</title>
<path fill="none" stroke="midnightblue" d="M240.143,-147C257.693,-147 276.719,-147 293.883,-147"/>
<polygon fill="midnightblue" stroke="midnightblue" points="240.006,-143.5 230.006,-147 240.006,-150.5 240.006,-143.5"/>
</g>
<!-- Node17 -->
<g id="node17" class="node"><title>Node17</title>
<g id="a_node17"><a xlink:href="class_i_v_meter_control.html" target="_top" xlink:title="Vectorial multichannel capable meter control. ">
<polygon fill="white" stroke="black" points="284.5,-88 284.5,-118 415.5,-118 415.5,-88 284.5,-88"/>
<text text-anchor="start" x="292.5" y="-106" font-family="Helvetica,sans-Serif" font-size="10.00">IVMeterControl&lt; MAXNC,</text>
<text text-anchor="middle" x="350" y="-95" font-family="Helvetica,sans-Serif" font-size="10.00"> QUEUE_SIZE &gt;</text>
</a>
</g>
</g>
<!-- Node16&#45;&gt;Node17 -->
<g id="edge16" class="edge"><title>Node16&#45;&gt;Node17</title>
<path fill="none" stroke="midnightblue" d="M241.039,-103C255.179,-103 270.235,-103 284.477,-103"/>
<polygon fill="midnightblue" stroke="midnightblue" points="240.929,-99.5001 230.929,-103 240.929,-106.5 240.929,-99.5001"/>
</g>
<!-- Node18 -->
<g id="node18" class="node"><title>Node18</title>
<g id="a_node18"><a xlink:href="class_i_v_multi_slider_control.html" target="_top" xlink:title="A vectorial multi&#45;slider control. ">
<polygon fill="white" stroke="black" points="298,-39 298,-69 402,-69 402,-39 298,-39"/>
<text text-anchor="start" x="306" y="-57" font-family="Helvetica,sans-Serif" font-size="10.00">IVMultiSliderControl</text>
<text text-anchor="middle" x="350" y="-46" font-family="Helvetica,sans-Serif" font-size="10.00">&lt; MAXNC &gt;</text>
</a>
</g>
</g>
<!-- Node16&#45;&gt;Node18 -->
<g id="edge17" class="edge"><title>Node16&#45;&gt;Node18</title>
<path fill="none" stroke="midnightblue" d="M223.797,-90.8049C231.862,-88.5695 240.187,-86.2358 248,-84 264.619,-79.2443 282.731,-73.9117 298.969,-69.0761"/>
<polygon fill="midnightblue" stroke="midnightblue" points="222.849,-87.4357 214.14,-93.4699 224.711,-94.1835 222.849,-87.4357"/>
</g>
<!-- Node19 -->
<g id="node19" class="node"><title>Node19</title>
<g id="a_node19"><a xlink:href="class_i_v_range_slider_control.html" target="_top" xlink:title="IVRangeSliderControl">
<polygon fill="white" stroke="black" points="294.5,-0.5 294.5,-19.5 405.5,-19.5 405.5,-0.5 294.5,-0.5"/>
<text text-anchor="middle" x="350" y="-7.5" font-family="Helvetica,sans-Serif" font-size="10.00">IVRangeSliderControl</text>
</a>
</g>
</g>
<!-- Node16&#45;&gt;Node19 -->
<g id="edge18" class="edge"><title>Node16&#45;&gt;Node19</title>
<path fill="none" stroke="midnightblue" d="M239.52,-89.2455C242.49,-87.6815 245.339,-85.9398 248,-84 271.607,-66.7888 260.528,-46.3958 284,-29 289.195,-25.1497 295.158,-22.0769 301.319,-19.6251"/>
<polygon fill="midnightblue" stroke="midnightblue" points="237.973,-86.1038 230.314,-93.4242 240.867,-92.4779 237.973,-86.1038"/>
</g>
</g>
</svg>
