<?xml version="1.0" encoding="UTF-8" standalone="no"?>
<!DOCTYPE svg PUBLIC "-//W3C//DTD SVG 1.1//EN"
 "http://www.w3.org/Graphics/SVG/1.1/DTD/svg11.dtd">
<!-- Generated by graphviz version 2.36.0 (20140111.2315)
 -->
<!-- Title: ITextControl Pages: 1 -->
<svg width="531pt" height="140pt"
 viewBox="0.00 0.00 531.00 140.00" xmlns="http://www.w3.org/2000/svg" xmlns:xlink="http://www.w3.org/1999/xlink">
<g id="graph0" class="graph" transform="scale(1 1) rotate(0) translate(4 136)">
<title>ITextControl</title>
<polygon fill="white" stroke="none" points="-4,4 -4,-136 527,-136 527,4 -4,4"/>
<!-- Node1 -->
<g id="node1" class="node"><title>Node1</title>
<polygon fill="#bfbfbf" stroke="black" points="216.5,-56.5 216.5,-75.5 287.5,-75.5 287.5,-56.5 216.5,-56.5"/>
<text text-anchor="middle" x="252" y="-63.5" font-family="Helvetica,sans-Serif" font-size="10.00">ITextControl</text>
</g>
<!-- Node3 -->
<g id="node3" class="node"><title>Node3</title>
<g id="a_node3"><a xlink:href="class_i_b_text_control.html" target="_top" xlink:title="A control to display text using a monospace bitmap font. ">
<polygon fill="white" stroke="black" points="-0.5,-0.5 -0.5,-19.5 76.5,-19.5 76.5,-0.5 -0.5,-0.5"/>
<text text-anchor="middle" x="38" y="-7.5" font-family="Helvetica,sans-Serif" font-size="10.00">IBTextControl</text>
</a>
</g>
</g>
<!-- Node1&#45;&gt;Node3 -->
<g id="edge2" class="edge"><title>Node1&#45;&gt;Node3</title>
<path fill="none" stroke="midnightblue" d="M208.245,-53.959C167.826,-43.7598 108.627,-28.8217 71.7503,-19.5164"/>
<polygon fill="midnightblue" stroke="midnightblue" points="207.539,-57.3904 218.091,-56.4435 209.251,-50.6032 207.539,-57.3904"/>
</g>
<!-- Node4 -->
<g id="node4" class="node"><title>Node4</title>
<g id="a_node4"><a xlink:href="class_i_caption_control.html" target="_top" xlink:title="A control to display the textual representation of a parameter. ">
<polygon fill="white" stroke="black" points="94.5,-0.5 94.5,-19.5 179.5,-19.5 179.5,-0.5 94.5,-0.5"/>
<text text-anchor="middle" x="137" y="-7.5" font-family="Helvetica,sans-Serif" font-size="10.00">ICaptionControl</text>
</a>
</g>
</g>
<!-- Node1&#45;&gt;Node4 -->
<g id="edge3" class="edge"><title>Node1&#45;&gt;Node4</title>
<path fill="none" stroke="midnightblue" d="M224.519,-52.096C203.034,-42.0073 173.778,-28.2697 155.137,-19.5164"/>
<polygon fill="midnightblue" stroke="midnightblue" points="223.238,-55.3612 233.778,-56.4435 226.214,-49.025 223.238,-55.3612"/>
</g>
<!-- Node5 -->
<g id="node5" class="node"><title>Node5</title>
<g id="a_node5"><a xlink:href="class_i_r_t_text_control.html" target="_top" xlink:title="A control to display some text in the UI, driven by values in the RT audio thread. ">
<polygon fill="white" stroke="black" points="198,-0.5 198,-19.5 306,-19.5 306,-0.5 198,-0.5"/>
<text text-anchor="middle" x="252" y="-7.5" font-family="Helvetica,sans-Serif" font-size="10.00">IRTTextControl&lt; T &gt;</text>
</a>
</g>
</g>
<!-- Node1&#45;&gt;Node5 -->
<g id="edge4" class="edge"><title>Node1&#45;&gt;Node5</title>
<path fill="none" stroke="midnightblue" d="M252,-45.8045C252,-36.9102 252,-26.7798 252,-19.7511"/>
<polygon fill="midnightblue" stroke="midnightblue" points="248.5,-46.083 252,-56.083 255.5,-46.083 248.5,-46.083"/>
</g>
<!-- Node6 -->
<g id="node6" class="node"><title>Node6</title>
<g id="a_node6"><a xlink:href="class_i_text_toggle_control.html" target="_top" xlink:title="ITextToggleControl">
<polygon fill="white" stroke="black" points="324,-0.5 324,-19.5 424,-19.5 424,-0.5 324,-0.5"/>
<text text-anchor="middle" x="374" y="-7.5" font-family="Helvetica,sans-Serif" font-size="10.00">ITextToggleControl</text>
</a>
</g>
</g>
<!-- Node1&#45;&gt;Node6 -->
<g id="edge5" class="edge"><title>Node1&#45;&gt;Node6</title>
<path fill="none" stroke="midnightblue" d="M280.539,-52.3678C303.386,-42.2553 334.805,-28.3486 354.759,-19.5164"/>
<polygon fill="midnightblue" stroke="midnightblue" points="279.059,-49.1955 271.331,-56.4435 281.892,-55.5965 279.059,-49.1955"/>
</g>
<!-- Node7 -->
<g id="node7" class="node"><title>Node7</title>
<g id="a_node7"><a xlink:href="class_i_v_label_control.html" target="_top" xlink:title="IVLabelControl">
<polygon fill="white" stroke="black" points="442.5,-0.5 442.5,-19.5 523.5,-19.5 523.5,-0.5 442.5,-0.5"/>
<text text-anchor="middle" x="483" y="-7.5" font-family="Helvetica,sans-Serif" font-size="10.00">IVLabelControl</text>
</a>
</g>
</g>
<!-- Node1&#45;&gt;Node7 -->
<g id="edge6" class="edge"><title>Node1&#45;&gt;Node7</title>
<path fill="none" stroke="midnightblue" d="M297.379,-54.3919C341.05,-44.1831 406.239,-28.944 446.609,-19.5069"/>
<polygon fill="midnightblue" stroke="midnightblue" points="296.528,-50.9964 287.588,-56.6808 298.122,-57.8126 296.528,-50.9964"/>
</g>
<!-- Node2 -->
<g id="node2" class="node"><title>Node2</title>
<g id="a_node2"><a xlink:href="class_i_control.html" target="_top" xlink:title="The lowest level base class of an IGraphics control. ">
<polygon fill="white" stroke="black" points="226.5,-112.5 226.5,-131.5 277.5,-131.5 277.5,-112.5 226.5,-112.5"/>
<text text-anchor="middle" x="252" y="-119.5" font-family="Helvetica,sans-Serif" font-size="10.00">IControl</text>
</a>
</g>
</g>
<!-- Node2&#45;&gt;Node1 -->
<g id="edge1" class="edge"><title>Node2&#45;&gt;Node1</title>
<path fill="none" stroke="midnightblue" d="M252,-101.805C252,-92.9102 252,-82.7798 252,-75.7511"/>
<polygon fill="midnightblue" stroke="midnightblue" points="248.5,-102.083 252,-112.083 255.5,-102.083 248.5,-102.083"/>
</g>
</g>
</svg>
